<?xml version="1.0" encoding="utf-8" standalone="no"?>
<!DOCTYPE svg PUBLIC "-//W3C//DTD SVG 1.1//EN"
  "http://www.w3.org/Graphics/SVG/1.1/DTD/svg11.dtd">
<svg xmlns:xlink="http://www.w3.org/1999/xlink" width="406.319682pt" height="323.525533pt" viewBox="0 0 406.319682 323.525533" xmlns="http://www.w3.org/2000/svg" version="1.1">
 <metadata>
  <rdf:RDF xmlns:dc="http://purl.org/dc/elements/1.1/" xmlns:cc="http://creativecommons.org/ns#" xmlns:rdf="http://www.w3.org/1999/02/22-rdf-syntax-ns#">
   <cc:Work>
    <dc:type rdf:resource="http://purl.org/dc/dcmitype/StillImage"/>
    <dc:date>2023-04-12T14:29:54.322050</dc:date>
    <dc:format>image/svg+xml</dc:format>
    <dc:creator>
     <cc:Agent>
      <dc:title>Matplotlib v3.6.2, https://matplotlib.org/</dc:title>
     </cc:Agent>
    </dc:creator>
   </cc:Work>
  </rdf:RDF>
 </metadata>
 <defs>
  <style type="text/css">*{stroke-linejoin: round; stroke-linecap: butt}</style>
 </defs>
 <g id="figure_1">
  <g id="patch_1">
   <path d="M 0 323.525533 
L 406.319682 323.525533 
L 406.319682 0 
L 0 0 
z
" style="fill: #ffffff"/>
  </g>
  <g id="axes_1">
   <g id="patch_2">
    <path d="M 41.999682 287.61418 
L 399.119682 287.61418 
L 399.119682 21.50218 
L 41.999682 21.50218 
z
" style="fill: #ffffff"/>
   </g>
   <g id="patch_3">
    <path d="M 171.835272 275.008086 
L 142.018658 198.541384 
L 181.932228 209.64428 
L 231.746989 254.462647 
L 212.064997 275.724813 
z
" clip-path="url(#pe7c0e48799)" style="fill: #2ca02c; stroke-dasharray: 11.1,4.8; stroke-dashoffset: 0; stroke: #2ca02c; stroke-width: 3; stroke-linejoin: miter"/>
   </g>
   <g id="patch_4">
    <path d="M 84.644719 269.253965 
L 115.13378 191.062725 
L 142.018658 198.541384 
L 171.835272 275.008086 
L 169.591571 274.968113 
L 127.118145 273.484099 
z
" clip-path="url(#pe7c0e48799)" style="fill: #2ca02c; stroke-dasharray: 11.1,4.8; stroke-dashoffset: 0; stroke: #2ca02c; stroke-width: 3; stroke-linejoin: miter"/>
   </g>
   <g id="patch_5">
    <path d="M 46.736769 172.036491 
L 115.13378 191.062725 
L 84.644719 269.253965 
z
" clip-path="url(#pe7c0e48799)" style="fill: #2ca02c; stroke-dasharray: 11.1,4.8; stroke-dashoffset: 0; stroke: #2ca02c; stroke-width: 3; stroke-linejoin: miter"/>
   </g>
   <g id="patch_6">
    <path d="M 212.064997 218.026416 
L 254.538423 229.841396 
L 249.554774 235.225159 
z
" clip-path="url(#pe7c0e48799)" style="fill: #2ca02c; stroke-dasharray: 11.1,4.8; stroke-dashoffset: 0; stroke: #2ca02c; stroke-width: 3; stroke-linejoin: miter"/>
   </g>
   <g id="patch_7">
    <path d="M 181.932228 209.64428 
L 212.064997 218.026416 
L 249.554774 235.225159 
L 231.746989 254.462647 
z
" clip-path="url(#pe7c0e48799)" style="fill: #2ca02c; stroke-dasharray: 11.1,4.8; stroke-dashoffset: 0; stroke: #2ca02c; stroke-width: 3; stroke-linejoin: miter"/>
   </g>
   <g id="patch_8">
    <path d="M 191.248813 160.328019 
L 153.257055 93.293034 
L 171.835272 45.647953 
L 212.064997 44.931226 
L 239.718583 74.804988 
z
" clip-path="url(#pe7c0e48799)" style="fill: #2ca02c; stroke-dasharray: 11.1,4.8; stroke-dashoffset: 0; stroke: #2ca02c; stroke-width: 3; stroke-linejoin: miter"/>
   </g>
   <g id="patch_9">
    <path d="M 127.118145 47.17194 
L 169.591571 45.687926 
L 171.835272 45.647953 
L 153.257055 93.293034 
z
" clip-path="url(#pe7c0e48799)" style="fill: #2ca02c; stroke-dasharray: 11.1,4.8; stroke-dashoffset: 0; stroke: #2ca02c; stroke-width: 3; stroke-linejoin: miter"/>
   </g>
   <g id="patch_10">
    <path d="M 142.018658 198.541384 
L 84.644719 51.402074 
L 127.118145 47.17194 
L 191.248813 160.328019 
L 165.836591 205.166901 
z
" clip-path="url(#pe7c0e48799)" style="fill: #2ca02c; stroke-dasharray: 11.1,4.8; stroke-dashoffset: 0; stroke: #2ca02c; stroke-width: 3; stroke-linejoin: miter"/>
   </g>
   <g id="patch_11">
    <path d="M 115.13378 191.062725 
L 127.118145 160.328019 
L 142.018658 198.541384 
z
" clip-path="url(#pe7c0e48799)" style="fill: #2ca02c; stroke-dasharray: 11.1,4.8; stroke-dashoffset: 0; stroke: #2ca02c; stroke-width: 3; stroke-linejoin: miter"/>
   </g>
   <g id="patch_12">
    <path d="M 46.736769 172.036491 
L 42.171292 160.328019 
L 84.644719 51.402074 
L 127.118145 160.328019 
L 115.13378 191.062725 
z
" clip-path="url(#pe7c0e48799)" style="fill: #2ca02c; stroke-dasharray: 11.1,4.8; stroke-dashoffset: 0; stroke: #2ca02c; stroke-width: 3; stroke-linejoin: miter"/>
   </g>
   <g id="patch_13">
    <path d="M 165.836591 205.166901 
L 169.591571 198.541384 
L 273.80381 104.781576 
L 288.557329 115.477516 
L 212.064997 218.026416 
z
" clip-path="url(#pe7c0e48799)" style="fill: #2ca02c; stroke-dasharray: 11.1,4.8; stroke-dashoffset: 0; stroke: #2ca02c; stroke-width: 3; stroke-linejoin: miter"/>
   </g>
   <g id="patch_14">
    <path d="M 212.064997 218.026416 
L 317.53894 132.285101 
L 335.969412 141.872698 
L 254.538423 229.841396 
z
" clip-path="url(#pe7c0e48799)" style="fill: #2ca02c; stroke-dasharray: 11.1,4.8; stroke-dashoffset: 0; stroke: #2ca02c; stroke-width: 3; stroke-linejoin: miter"/>
   </g>
   <g id="patch_15">
    <path d="M 254.538423 229.841396 
L 331.316231 146.899461 
L 339.485276 143.701663 
L 361.479827 152.311499 
z
" clip-path="url(#pe7c0e48799)" style="fill: #2ca02c; stroke-dasharray: 11.1,4.8; stroke-dashoffset: 0; stroke: #2ca02c; stroke-width: 3; stroke-linejoin: miter"/>
   </g>
   <g id="patch_16">
    <path d="M 331.316231 146.899461 
L 335.969412 141.872698 
L 339.485276 143.701663 
z
" clip-path="url(#pe7c0e48799)" style="fill: #2ca02c; stroke-dasharray: 11.1,4.8; stroke-dashoffset: 0; stroke: #2ca02c; stroke-width: 3; stroke-linejoin: miter"/>
   </g>
   <g id="patch_17">
    <path d="M 212.064997 218.026416 
L 279.091613 128.167661 
L 297.01185 121.606836 
L 317.53894 132.285101 
z
" clip-path="url(#pe7c0e48799)" style="fill: #2ca02c; stroke-dasharray: 11.1,4.8; stroke-dashoffset: 0; stroke: #2ca02c; stroke-width: 3; stroke-linejoin: miter"/>
   </g>
   <g id="patch_18">
    <path d="M 279.091613 128.167661 
L 288.557329 115.477516 
L 297.01185 121.606836 
z
" clip-path="url(#pe7c0e48799)" style="fill: #2ca02c; stroke-dasharray: 11.1,4.8; stroke-dashoffset: 0; stroke: #2ca02c; stroke-width: 3; stroke-linejoin: miter"/>
   </g>
   <g id="patch_19">
    <path d="M 169.591571 198.541384 
L 226.173333 98.705058 
L 254.538423 90.814643 
L 273.80381 104.781576 
z
" clip-path="url(#pe7c0e48799)" style="fill: #2ca02c; stroke-dasharray: 11.1,4.8; stroke-dashoffset: 0; stroke: #2ca02c; stroke-width: 3; stroke-linejoin: miter"/>
   </g>
   <g id="patch_20">
    <path d="M 226.173333 98.705058 
L 239.718583 74.804988 
L 254.538423 90.814643 
z
" clip-path="url(#pe7c0e48799)" style="fill: #2ca02c; stroke-dasharray: 11.1,4.8; stroke-dashoffset: 0; stroke: #2ca02c; stroke-width: 3; stroke-linejoin: miter"/>
   </g>
   <g id="patch_21">
    <path d="M 297.01185 199.049203 
L 361.479827 152.311499 
L 375.960315 157.979932 
z
" clip-path="url(#pe7c0e48799)" style="fill: #2ca02c; stroke-dasharray: 11.1,4.8; stroke-dashoffset: 0; stroke: #2ca02c; stroke-width: 3; stroke-linejoin: miter"/>
   </g>
   <g id="patch_22">
    <path d="M 339.485276 176.954376 
L 375.960315 157.979932 
L 381.958702 160.328019 
z
" clip-path="url(#pe7c0e48799)" style="fill: #2ca02c; stroke-dasharray: 11.1,4.8; stroke-dashoffset: 0; stroke: #2ca02c; stroke-width: 3; stroke-linejoin: miter"/>
   </g>
   <g id="patch_23">
    <path d="M 210.348899 238.813381 
L 210.348899 217.549043 
L 254.538423 229.841396 
L 246.233224 238.813381 
z
" clip-path="url(#pe7c0e48799)" style="fill: #1f77b4; stroke-dasharray: 11.1,4.8; stroke-dashoffset: 0; stroke: #1f77b4; stroke-width: 3; stroke-linejoin: miter"/>
   </g>
   <g id="patch_24">
    <path d="M 212.064997 218.026416 
L 210.348899 217.549043 
L 210.348899 121.085339 
L 284.374394 121.085339 
z
" clip-path="url(#pe7c0e48799)" style="fill: #1f77b4; stroke-dasharray: 11.1,4.8; stroke-dashoffset: 0; stroke: #1f77b4; stroke-width: 3; stroke-linejoin: miter"/>
   </g>
   <g id="patch_25">
    <path d="M 254.538423 229.841396 
L 212.064997 218.026416 
L 279.091613 128.167661 
L 297.01185 121.606836 
L 335.969412 141.872698 
z
" clip-path="url(#pe7c0e48799)" style="fill: #1f77b4; stroke-dasharray: 11.1,4.8; stroke-dashoffset: 0; stroke: #1f77b4; stroke-width: 3; stroke-linejoin: miter"/>
   </g>
   <g id="patch_26">
    <path d="M 254.538423 229.841396 
L 331.316231 146.899461 
L 339.485276 143.701663 
L 361.479827 152.311499 
z
" clip-path="url(#pe7c0e48799)" style="fill: #1f77b4; stroke-dasharray: 11.1,4.8; stroke-dashoffset: 0; stroke: #1f77b4; stroke-width: 3; stroke-linejoin: miter"/>
   </g>
   <g id="patch_27">
    <path d="M 331.316231 146.899461 
L 335.969412 141.872698 
L 339.485276 143.701663 
z
" clip-path="url(#pe7c0e48799)" style="fill: #1f77b4; stroke-dasharray: 11.1,4.8; stroke-dashoffset: 0; stroke: #1f77b4; stroke-width: 3; stroke-linejoin: miter"/>
   </g>
   <g id="patch_28">
    <path d="M 279.091613 128.167661 
L 284.374394 121.085339 
L 296.292519 121.085339 
L 297.01185 121.606836 
z
" clip-path="url(#pe7c0e48799)" style="fill: #1f77b4; stroke-dasharray: 11.1,4.8; stroke-dashoffset: 0; stroke: #1f77b4; stroke-width: 3; stroke-linejoin: miter"/>
   </g>
   <g id="patch_29">
    <path d="M 297.01185 199.049203 
L 361.479827 152.311499 
L 375.960315 157.979932 
z
" clip-path="url(#pe7c0e48799)" style="fill: #1f77b4; stroke-dasharray: 11.1,4.8; stroke-dashoffset: 0; stroke: #1f77b4; stroke-width: 3; stroke-linejoin: miter"/>
   </g>
   <g id="patch_30">
    <path d="M 339.485276 176.954376 
L 375.960315 157.979932 
L 381.958702 160.328019 
z
" clip-path="url(#pe7c0e48799)" style="fill: #1f77b4; stroke-dasharray: 11.1,4.8; stroke-dashoffset: 0; stroke: #1f77b4; stroke-width: 3; stroke-linejoin: miter"/>
   </g>
   <g id="patch_31">
    <path d="M 210.348899 238.813381 
L 210.348899 121.085339 
L 381.958702 121.085339 
L 381.958702 238.813381 
z
" clip-path="url(#pe7c0e48799)" style="fill: #7f7f7f; opacity: 0.5; stroke-dasharray: 11.1,4.8; stroke-dashoffset: 0; stroke: #7f7f7f; stroke-width: 3; stroke-linejoin: miter"/>
   </g>
   <g id="matplotlib.axis_1">
    <g id="xtick_1">
     <g id="line2d_1">
      <defs>
       <path id="m432a11a6ea" d="M 0 0 
L 0 3.5 
" style="stroke: #000000; stroke-width: 0.8"/>
      </defs>
      <g>
       <use xlink:href="#m432a11a6ea" x="81.641547" y="287.61418" style="stroke: #000000; stroke-width: 0.8"/>
      </g>
     </g>
     <g id="text_1">
      <!-- $\mathdefault{2.5}$ -->
      <g transform="translate(75.276507 301.532678) scale(0.1 -0.1)">
       <defs>
        <path id="CMR17-32" d="M 2669 990 
L 2554 990 
C 2490 537 2438 460 2413 422 
C 2381 371 1920 371 1830 371 
L 602 371 
C 832 620 1280 1073 1824 1596 
C 2214 1966 2669 2400 2669 3033 
C 2669 3788 2067 4224 1395 4224 
C 691 4224 262 3603 262 3027 
C 262 2777 448 2745 525 2745 
C 589 2745 781 2783 781 3007 
C 781 3206 614 3264 525 3264 
C 486 3264 448 3257 422 3244 
C 544 3788 915 4057 1306 4057 
C 1862 4057 2227 3616 2227 3033 
C 2227 2477 1901 1998 1536 1583 
L 262 147 
L 262 0 
L 2515 0 
L 2669 990 
z
" transform="scale(0.015625)"/>
        <path id="CMMI12-3a" d="M 1178 307 
C 1178 492 1024 620 870 620 
C 685 620 557 467 557 313 
C 557 128 710 0 864 0 
C 1050 0 1178 153 1178 307 
z
" transform="scale(0.015625)"/>
        <path id="CMR17-35" d="M 730 3750 
C 794 3724 1056 3641 1325 3641 
C 1920 3641 2246 3961 2432 4140 
C 2432 4191 2432 4224 2394 4224 
C 2387 4224 2374 4224 2323 4198 
C 2099 4102 1837 4032 1517 4032 
C 1325 4032 1037 4055 723 4191 
C 653 4224 640 4224 634 4224 
C 602 4224 595 4217 595 4090 
L 595 2231 
C 595 2113 595 2080 659 2080 
C 691 2080 704 2093 736 2139 
C 941 2435 1222 2560 1542 2560 
C 1766 2560 2246 2415 2246 1293 
C 2246 1087 2246 716 2054 422 
C 1894 159 1645 25 1370 25 
C 947 25 518 319 403 812 
C 429 806 480 793 506 793 
C 589 793 749 838 749 1036 
C 749 1209 627 1280 506 1280 
C 358 1280 262 1190 262 1011 
C 262 454 704 -128 1382 -128 
C 2042 -128 2669 441 2669 1267 
C 2669 2054 2170 2662 1549 2662 
C 1222 2662 947 2540 730 2304 
L 730 3750 
z
" transform="scale(0.015625)"/>
       </defs>
       <use xlink:href="#CMR17-32" transform="scale(0.996264)"/>
       <use xlink:href="#CMMI12-3a" transform="translate(45.690477 0) scale(0.996264)"/>
       <use xlink:href="#CMR17-35" transform="translate(72.787654 0) scale(0.996264)"/>
      </g>
     </g>
    </g>
    <g id="xtick_2">
     <g id="line2d_2">
      <g>
       <use xlink:href="#m432a11a6ea" x="124.543998" y="287.61418" style="stroke: #000000; stroke-width: 0.8"/>
      </g>
     </g>
     <g id="text_2">
      <!-- $\mathdefault{5.0}$ -->
      <g transform="translate(118.178958 301.532678) scale(0.1 -0.1)">
       <defs>
        <path id="CMR17-30" d="M 2688 2038 
C 2688 2430 2682 3099 2413 3613 
C 2176 4063 1798 4224 1466 4224 
C 1158 4224 768 4082 525 3620 
C 269 3137 243 2539 243 2038 
C 243 1671 250 1112 448 623 
C 723 -39 1216 -128 1466 -128 
C 1760 -128 2208 -7 2470 604 
C 2662 1048 2688 1568 2688 2038 
z
M 1466 -26 
C 1056 -26 813 328 723 816 
C 653 1196 653 1749 653 2109 
C 653 2604 653 3015 736 3407 
C 858 3954 1216 4121 1466 4121 
C 1728 4121 2067 3947 2189 3420 
C 2272 3054 2278 2623 2278 2109 
C 2278 1691 2278 1176 2202 797 
C 2067 96 1690 -26 1466 -26 
z
" transform="scale(0.015625)"/>
       </defs>
       <use xlink:href="#CMR17-35" transform="scale(0.996264)"/>
       <use xlink:href="#CMMI12-3a" transform="translate(45.690477 0) scale(0.996264)"/>
       <use xlink:href="#CMR17-30" transform="translate(72.787654 0) scale(0.996264)"/>
      </g>
     </g>
    </g>
    <g id="xtick_3">
     <g id="line2d_3">
      <g>
       <use xlink:href="#m432a11a6ea" x="167.446448" y="287.61418" style="stroke: #000000; stroke-width: 0.8"/>
      </g>
     </g>
     <g id="text_3">
      <!-- $\mathdefault{7.5}$ -->
      <g transform="translate(161.081409 301.532678) scale(0.1 -0.1)">
       <defs>
        <path id="CMR17-37" d="M 2886 3955 
L 2886 4096 
L 1382 4096 
C 634 4096 621 4166 595 4288 
L 480 4288 
L 294 3104 
L 410 3104 
C 429 3226 474 3552 550 3673 
C 589 3724 1062 3724 1171 3724 
L 2579 3724 
L 1869 2670 
C 1395 1961 1069 1003 1069 166 
C 1069 89 1069 -128 1299 -128 
C 1530 -128 1530 89 1530 172 
L 1530 466 
C 1530 1514 1709 2204 2003 2644 
L 2886 3955 
z
" transform="scale(0.015625)"/>
       </defs>
       <use xlink:href="#CMR17-37" transform="scale(0.996264)"/>
       <use xlink:href="#CMMI12-3a" transform="translate(45.690477 0) scale(0.996264)"/>
       <use xlink:href="#CMR17-35" transform="translate(72.787654 0) scale(0.996264)"/>
      </g>
     </g>
    </g>
    <g id="xtick_4">
     <g id="line2d_4">
      <g>
       <use xlink:href="#m432a11a6ea" x="210.348899" y="287.61418" style="stroke: #000000; stroke-width: 0.8"/>
      </g>
     </g>
     <g id="text_4">
      <!-- $\mathdefault{10.0}$ -->
      <g transform="translate(201.493192 301.532678) scale(0.1 -0.1)">
       <defs>
        <path id="CMR17-31" d="M 1702 4083 
C 1702 4217 1696 4224 1606 4224 
C 1357 3927 979 3833 621 3820 
C 602 3820 570 3820 563 3808 
C 557 3795 557 3782 557 3648 
C 755 3648 1088 3686 1344 3839 
L 1344 467 
C 1344 243 1331 166 781 166 
L 589 166 
L 589 0 
C 896 6 1216 12 1523 12 
C 1830 12 2150 6 2458 0 
L 2458 166 
L 2266 166 
C 1715 166 1702 236 1702 467 
L 1702 4083 
z
" transform="scale(0.015625)"/>
       </defs>
       <use xlink:href="#CMR17-31" transform="scale(0.996264)"/>
       <use xlink:href="#CMR17-30" transform="translate(45.690477 0) scale(0.996264)"/>
       <use xlink:href="#CMMI12-3a" transform="translate(91.380954 0) scale(0.996264)"/>
       <use xlink:href="#CMR17-30" transform="translate(118.478131 0) scale(0.996264)"/>
      </g>
     </g>
    </g>
    <g id="xtick_5">
     <g id="line2d_5">
      <g>
       <use xlink:href="#m432a11a6ea" x="253.25135" y="287.61418" style="stroke: #000000; stroke-width: 0.8"/>
      </g>
     </g>
     <g id="text_5">
      <!-- $\mathdefault{12.5}$ -->
      <g transform="translate(244.395643 301.532678) scale(0.1 -0.1)">
       <use xlink:href="#CMR17-31" transform="scale(0.996264)"/>
       <use xlink:href="#CMR17-32" transform="translate(45.690477 0) scale(0.996264)"/>
       <use xlink:href="#CMMI12-3a" transform="translate(91.380954 0) scale(0.996264)"/>
       <use xlink:href="#CMR17-35" transform="translate(118.478131 0) scale(0.996264)"/>
      </g>
     </g>
    </g>
    <g id="xtick_6">
     <g id="line2d_6">
      <g>
       <use xlink:href="#m432a11a6ea" x="296.153801" y="287.61418" style="stroke: #000000; stroke-width: 0.8"/>
      </g>
     </g>
     <g id="text_6">
      <!-- $\mathdefault{15.0}$ -->
      <g transform="translate(287.298094 301.532678) scale(0.1 -0.1)">
       <use xlink:href="#CMR17-31" transform="scale(0.996264)"/>
       <use xlink:href="#CMR17-35" transform="translate(45.690477 0) scale(0.996264)"/>
       <use xlink:href="#CMMI12-3a" transform="translate(91.380954 0) scale(0.996264)"/>
       <use xlink:href="#CMR17-30" transform="translate(118.478131 0) scale(0.996264)"/>
      </g>
     </g>
    </g>
    <g id="xtick_7">
     <g id="line2d_7">
      <g>
       <use xlink:href="#m432a11a6ea" x="339.056251" y="287.61418" style="stroke: #000000; stroke-width: 0.8"/>
      </g>
     </g>
     <g id="text_7">
      <!-- $\mathdefault{17.5}$ -->
      <g transform="translate(330.200544 301.532678) scale(0.1 -0.1)">
       <use xlink:href="#CMR17-31" transform="scale(0.996264)"/>
       <use xlink:href="#CMR17-37" transform="translate(45.690477 0) scale(0.996264)"/>
       <use xlink:href="#CMMI12-3a" transform="translate(91.380954 0) scale(0.996264)"/>
       <use xlink:href="#CMR17-35" transform="translate(118.478131 0) scale(0.996264)"/>
      </g>
     </g>
    </g>
    <g id="xtick_8">
     <g id="line2d_8">
      <g>
       <use xlink:href="#m432a11a6ea" x="381.958702" y="287.61418" style="stroke: #000000; stroke-width: 0.8"/>
      </g>
     </g>
     <g id="text_8">
      <!-- $\mathdefault{20.0}$ -->
      <g transform="translate(373.102995 301.532678) scale(0.1 -0.1)">
       <use xlink:href="#CMR17-32" transform="scale(0.996264)"/>
       <use xlink:href="#CMR17-30" transform="translate(45.690477 0) scale(0.996264)"/>
       <use xlink:href="#CMMI12-3a" transform="translate(91.380954 0) scale(0.996264)"/>
       <use xlink:href="#CMR17-30" transform="translate(118.478131 0) scale(0.996264)"/>
      </g>
     </g>
    </g>
    <g id="text_9">
     <!-- $y_{1}$ -->
     <g transform="translate(216.131814 314.388355) scale(0.1 -0.1)">
      <defs>
       <path id="CMMI12-79" d="M 1683 -673 
C 1510 -921 1261 -1152 947 -1152 
C 870 -1152 563 -1139 467 -826 
C 486 -833 518 -833 531 -833 
C 723 -833 851 -666 851 -519 
C 851 -372 730 -320 634 -320 
C 531 -320 307 -397 307 -711 
C 307 -1050 582 -1280 947 -1280 
C 1587 -1280 2234 -673 2413 -7 
L 3040 2483 
C 3046 2515 3059 2553 3059 2591 
C 3059 2687 2982 2752 2886 2752 
C 2829 2752 2694 2726 2643 2534 
L 2170 657 
C 2138 542 2138 530 2086 459 
C 1958 281 1747 64 1440 64 
C 1082 64 1050 415 1050 587 
C 1050 951 1222 1443 1395 1902 
C 1466 2087 1504 2177 1504 2305 
C 1504 2573 1312 2816 998 2816 
C 410 2816 173 1890 173 1838 
C 173 1813 198 1781 243 1781 
C 301 1781 307 1807 333 1896 
C 486 2432 730 2687 979 2687 
C 1037 2687 1146 2687 1146 2477 
C 1146 2311 1075 2126 979 1883 
C 666 1047 666 836 666 683 
C 666 76 1101 -64 1421 -64 
C 1606 -64 1837 -7 2061 230 
L 2067 223 
C 1971 -141 1907 -359 1683 -673 
z
" transform="scale(0.015625)"/>
      </defs>
      <use xlink:href="#CMMI12-79" transform="scale(0.996264)"/>
      <use xlink:href="#CMR17-31" transform="translate(47.564188 -14.943915) scale(0.697382)"/>
     </g>
    </g>
   </g>
   <g id="matplotlib.axis_2">
    <g id="ytick_1">
     <g id="line2d_9">
      <defs>
       <path id="m97aec04f4d" d="M 0 0 
L -3.5 0 
" style="stroke: #000000; stroke-width: 0.8"/>
      </defs>
      <g>
       <use xlink:href="#m97aec04f4d" x="41.999682" y="278.056062" style="stroke: #000000; stroke-width: 0.8"/>
      </g>
     </g>
     <g id="text_10">
      <!-- $\mathdefault{60}$ -->
      <g transform="translate(25.037012 281.515311) scale(0.1 -0.1)">
       <defs>
        <path id="CMR17-36" d="M 678 2198 
C 678 3712 1395 4076 1811 4076 
C 1946 4076 2272 4049 2400 3782 
C 2298 3782 2106 3782 2106 3558 
C 2106 3385 2246 3328 2336 3328 
C 2394 3328 2566 3353 2566 3571 
C 2566 3987 2246 4224 1805 4224 
C 1043 4224 243 3411 243 2011 
C 243 257 966 -128 1478 -128 
C 2099 -128 2688 431 2688 1295 
C 2688 2101 2170 2688 1517 2688 
C 1126 2688 838 2430 678 1979 
L 678 2198 
z
M 1478 25 
C 691 25 691 1212 691 1450 
C 691 1914 909 2585 1504 2585 
C 1613 2585 1926 2585 2138 2140 
C 2253 1889 2253 1624 2253 1302 
C 2253 954 2253 696 2118 438 
C 1978 173 1773 25 1478 25 
z
" transform="scale(0.015625)"/>
       </defs>
       <use xlink:href="#CMR17-36" transform="scale(0.996264)"/>
       <use xlink:href="#CMR17-30" transform="translate(45.690477 0) scale(0.996264)"/>
      </g>
     </g>
    </g>
    <g id="ytick_2">
     <g id="line2d_10">
      <g>
       <use xlink:href="#m97aec04f4d" x="41.999682" y="238.813381" style="stroke: #000000; stroke-width: 0.8"/>
      </g>
     </g>
     <g id="text_11">
      <!-- $\mathdefault{70}$ -->
      <g transform="translate(25.037012 242.27263) scale(0.1 -0.1)">
       <use xlink:href="#CMR17-37" transform="scale(0.996264)"/>
       <use xlink:href="#CMR17-30" transform="translate(45.690477 0) scale(0.996264)"/>
      </g>
     </g>
    </g>
    <g id="ytick_3">
     <g id="line2d_11">
      <g>
       <use xlink:href="#m97aec04f4d" x="41.999682" y="199.5707" style="stroke: #000000; stroke-width: 0.8"/>
      </g>
     </g>
     <g id="text_12">
      <!-- $\mathdefault{80}$ -->
      <g transform="translate(25.037012 203.029949) scale(0.1 -0.1)">
       <defs>
        <path id="CMR17-38" d="M 1741 2289 
C 2144 2494 2554 2803 2554 3298 
C 2554 3884 1990 4224 1472 4224 
C 890 4224 378 3800 378 3215 
C 378 3054 416 2777 666 2533 
C 730 2469 998 2276 1171 2154 
C 883 2006 211 1652 211 945 
C 211 282 838 -128 1459 -128 
C 2144 -128 2720 366 2720 1022 
C 2720 1607 2330 1877 2074 2051 
L 1741 2289 
z
M 902 2855 
C 851 2887 595 3086 595 3388 
C 595 3781 998 4076 1459 4076 
C 1965 4076 2336 3716 2336 3298 
C 2336 2700 1670 2359 1638 2359 
C 1632 2359 1626 2359 1574 2398 
L 902 2855 
z
M 2080 1536 
C 2176 1466 2483 1253 2483 861 
C 2483 385 2010 25 1472 25 
C 890 25 448 443 448 951 
C 448 1459 838 1884 1280 2083 
L 2080 1536 
z
" transform="scale(0.015625)"/>
       </defs>
       <use xlink:href="#CMR17-38" transform="scale(0.996264)"/>
       <use xlink:href="#CMR17-30" transform="translate(45.690477 0) scale(0.996264)"/>
      </g>
     </g>
    </g>
    <g id="ytick_4">
     <g id="line2d_12">
      <g>
       <use xlink:href="#m97aec04f4d" x="41.999682" y="160.328019" style="stroke: #000000; stroke-width: 0.8"/>
      </g>
     </g>
     <g id="text_13">
      <!-- $\mathdefault{90}$ -->
      <g transform="translate(25.037012 163.787269) scale(0.1 -0.1)">
       <defs>
        <path id="CMR17-39" d="M 2253 1871 
C 2253 448 1670 25 1190 25 
C 1043 25 685 43 538 281 
C 704 256 826 345 826 505 
C 826 678 685 736 595 736 
C 538 736 365 710 365 492 
C 365 68 742 -128 1203 -128 
C 1939 -128 2688 665 2688 2090 
C 2688 3857 1971 4224 1485 4224 
C 851 4224 243 3664 243 2800 
C 243 2000 762 1408 1414 1408 
C 1952 1408 2189 1910 2253 2122 
L 2253 1871 
z
M 1427 1510 
C 1254 1510 1011 1542 813 1929 
C 678 2181 678 2477 678 2793 
C 678 3174 678 3438 858 3722 
C 947 3857 1114 4076 1485 4076 
C 2240 4076 2240 2909 2240 2651 
C 2240 2193 2035 1510 1427 1510 
z
" transform="scale(0.015625)"/>
       </defs>
       <use xlink:href="#CMR17-39" transform="scale(0.996264)"/>
       <use xlink:href="#CMR17-30" transform="translate(45.690477 0) scale(0.996264)"/>
      </g>
     </g>
    </g>
    <g id="ytick_5">
     <g id="line2d_13">
      <g>
       <use xlink:href="#m97aec04f4d" x="41.999682" y="121.085339" style="stroke: #000000; stroke-width: 0.8"/>
      </g>
     </g>
     <g id="text_14">
      <!-- $\mathdefault{100}$ -->
      <g transform="translate(20.055677 124.544588) scale(0.1 -0.1)">
       <use xlink:href="#CMR17-31" transform="scale(0.996264)"/>
       <use xlink:href="#CMR17-30" transform="translate(45.690477 0) scale(0.996264)"/>
       <use xlink:href="#CMR17-30" transform="translate(91.380954 0) scale(0.996264)"/>
      </g>
     </g>
    </g>
    <g id="ytick_6">
     <g id="line2d_14">
      <g>
       <use xlink:href="#m97aec04f4d" x="41.999682" y="81.842658" style="stroke: #000000; stroke-width: 0.8"/>
      </g>
     </g>
     <g id="text_15">
      <!-- $\mathdefault{110}$ -->
      <g transform="translate(20.055677 85.301907) scale(0.1 -0.1)">
       <use xlink:href="#CMR17-31" transform="scale(0.996264)"/>
       <use xlink:href="#CMR17-31" transform="translate(45.690477 0) scale(0.996264)"/>
       <use xlink:href="#CMR17-30" transform="translate(91.380954 0) scale(0.996264)"/>
      </g>
     </g>
    </g>
    <g id="ytick_7">
     <g id="line2d_15">
      <g>
       <use xlink:href="#m97aec04f4d" x="41.999682" y="42.599977" style="stroke: #000000; stroke-width: 0.8"/>
      </g>
     </g>
     <g id="text_16">
      <!-- $\mathdefault{120}$ -->
      <g transform="translate(20.055677 46.059227) scale(0.1 -0.1)">
       <use xlink:href="#CMR17-31" transform="scale(0.996264)"/>
       <use xlink:href="#CMR17-32" transform="translate(45.690477 0) scale(0.996264)"/>
       <use xlink:href="#CMR17-30" transform="translate(91.380954 0) scale(0.996264)"/>
      </g>
     </g>
    </g>
    <g id="text_17">
     <!-- $y_{2}$ -->
     <g transform="translate(14.118498 158.986049) rotate(-90) scale(0.1 -0.1)">
      <use xlink:href="#CMMI12-79" transform="scale(0.996264)"/>
      <use xlink:href="#CMR17-32" transform="translate(47.564188 -14.943915) scale(0.697382)"/>
     </g>
    </g>
   </g>
   <g id="patch_32">
    <path d="M 41.999682 287.61418 
L 41.999682 21.50218 
" style="fill: none; stroke: #000000; stroke-width: 0.8; stroke-linejoin: miter; stroke-linecap: square"/>
   </g>
   <g id="patch_33">
    <path d="M 399.119682 287.61418 
L 399.119682 21.50218 
" style="fill: none; stroke: #000000; stroke-width: 0.8; stroke-linejoin: miter; stroke-linecap: square"/>
   </g>
   <g id="patch_34">
    <path d="M 41.999682 287.61418 
L 399.119682 287.61418 
" style="fill: none; stroke: #000000; stroke-width: 0.8; stroke-linejoin: miter; stroke-linecap: square"/>
   </g>
   <g id="patch_35">
    <path d="M 41.999682 21.50218 
L 399.119682 21.50218 
" style="fill: none; stroke: #000000; stroke-width: 0.8; stroke-linejoin: miter; stroke-linecap: square"/>
   </g>
   <g id="text_18">
    <!-- Operability Index Evaluation - Outputs' Perspective -->
    <g transform="translate(94.823734 15.50218) scale(0.12 -0.12)">
     <defs>
      <path id="CMSS17-4f" d="M 4096 2201 
C 4096 3541 3219 4544 2214 4544 
C 1210 4544 333 3535 333 2201 
C 333 855 1222 -128 2214 -128 
C 3206 -128 4096 855 4096 2201 
z
M 2214 275 
C 1510 275 870 1067 870 2285 
C 870 3470 1549 4140 2214 4140 
C 2880 4140 3558 3470 3558 2285 
C 3558 1061 2912 275 2214 275 
z
" transform="scale(0.015625)"/>
      <path id="CMSS17-70" d="M 966 275 
C 1178 70 1466 -64 1773 -64 
C 2368 -64 2880 553 2880 1382 
C 2880 2147 2496 2816 1946 2816 
C 1626 2816 1242 2700 954 2470 
L 954 2764 
L 480 2764 
L 480 -1280 
L 966 -1280 
L 966 275 
z
M 966 2088 
C 1018 2166 1235 2412 1587 2412 
C 2035 2412 2394 1946 2394 1382 
C 2394 741 1958 326 1530 326 
C 1402 326 1267 358 1139 468 
C 966 624 966 721 966 812 
L 966 2088 
z
" transform="scale(0.015625)"/>
      <path id="CMSS17-65" d="M 2502 1375 
C 2502 1587 2490 2001 2285 2347 
C 2061 2713 1696 2816 1421 2816 
C 755 2816 192 2184 192 1363 
C 192 579 774 -64 1510 -64 
C 1798 -64 2150 19 2470 249 
C 2470 275 2458 414 2451 421 
C 2451 433 2432 629 2432 655 
C 2125 408 1773 326 1517 326 
C 1107 326 666 667 646 1375 
L 2502 1375 
z
M 698 1728 
C 781 2086 1062 2425 1421 2425 
C 1517 2425 1965 2412 2080 1728 
L 698 1728 
z
" transform="scale(0.015625)"/>
      <path id="CMSS17-72" d="M 954 1369 
C 954 1974 1395 2379 1958 2392 
L 1958 2816 
C 1549 2809 1165 2604 934 2270 
L 934 2783 
L 480 2783 
L 480 0 
L 954 0 
L 954 1369 
z
" transform="scale(0.015625)"/>
      <path id="CMSS17-61" d="M 2406 1789 
C 2406 2399 1978 2816 1402 2816 
C 1120 2816 813 2764 461 2559 
L 499 2133 
C 659 2250 934 2438 1395 2438 
C 1722 2438 1920 2185 1920 1782 
L 1920 1536 
C 896 1504 256 1209 256 711 
C 256 452 416 -64 947 -64 
C 1043 -64 1562 -52 1933 224 
L 1933 -13 
L 2406 -13 
L 2406 1789 
z
M 1920 824 
C 1920 711 1920 559 1728 446 
C 1562 339 1350 326 1261 326 
C 941 326 723 503 723 723 
C 723 1165 1722 1209 1920 1216 
L 1920 824 
z
" transform="scale(0.015625)"/>
      <path id="CMSS17-62" d="M 954 4416 
L 480 4416 
L 480 -13 
L 966 -13 
L 966 275 
C 1210 38 1504 -64 1766 -64 
C 2381 -64 2880 559 2880 1382 
C 2880 2133 2496 2816 1926 2816 
C 1523 2816 1165 2649 954 2476 
L 954 4416 
z
M 966 2095 
C 1107 2276 1306 2425 1587 2425 
C 1965 2425 2394 2146 2394 1382 
C 2394 566 1882 326 1530 326 
C 1402 326 1267 358 1139 468 
C 966 624 966 721 966 812 
L 966 2095 
z
" transform="scale(0.015625)"/>
      <path id="CMSS17-69" d="M 979 4224 
L 442 4224 
L 442 3686 
L 979 3686 
L 979 4224 
z
M 947 2752 
L 474 2752 
L 474 0 
L 947 0 
L 947 2752 
z
" transform="scale(0.015625)"/>
      <path id="CMSS17-6c" d="M 947 4416 
L 474 4416 
L 474 0 
L 947 0 
L 947 4416 
z
" transform="scale(0.015625)"/>
      <path id="CMSS17-74" d="M 1069 2380 
L 1901 2380 
L 1901 2752 
L 1069 2752 
L 1069 3520 
L 614 3520 
L 614 2752 
L 109 2752 
L 109 2380 
L 602 2380 
L 602 751 
C 602 384 685 -64 1107 -64 
C 1427 -64 1722 25 2003 172 
L 1901 551 
C 1747 416 1562 339 1363 339 
C 1082 339 1069 699 1069 860 
L 1069 2380 
z
" transform="scale(0.015625)"/>
      <path id="CMSS17-79" d="M 2675 2752 
L 2176 2752 
C 1632 1293 1446 701 1434 383 
L 1427 383 
C 1408 695 1126 1459 902 2006 
L 602 2752 
L 83 2752 
L 1216 14 
C 1146 -177 1043 -464 1011 -527 
C 870 -884 774 -884 672 -884 
C 646 -884 442 -877 211 -807 
L 250 -1229 
C 410 -1261 570 -1280 685 -1280 
C 845 -1280 1165 -1280 1459 -495 
L 2675 2752 
z
" transform="scale(0.015625)"/>
      <path id="CMSS17-49" d="M 1094 4416 
L 557 4416 
L 557 0 
L 1094 0 
L 1094 4416 
z
" transform="scale(0.015625)"/>
      <path id="CMSS17-6e" d="M 2618 1878 
C 2618 2283 2522 2816 1798 2816 
C 1389 2816 1120 2604 941 2386 
L 941 2783 
L 474 2783 
L 474 0 
L 960 0 
L 960 1556 
C 960 1962 1114 2425 1549 2425 
C 2112 2425 2131 2045 2131 1826 
L 2131 0 
L 2618 0 
L 2618 1878 
z
" transform="scale(0.015625)"/>
      <path id="CMSS17-64" d="M 2611 4416 
L 2138 4416 
L 2138 2495 
C 1939 2662 1613 2816 1254 2816 
C 672 2816 211 2179 211 1375 
C 211 572 666 -64 1235 -64 
C 1677 -64 1971 172 2125 307 
L 2125 -13 
L 2611 -13 
L 2611 4416 
z
M 2125 851 
C 2125 760 2125 663 1926 488 
C 1798 378 1645 326 1498 326 
C 1152 326 698 585 698 1369 
C 698 2185 1210 2425 1562 2425 
C 1798 2425 1990 2308 2125 2114 
L 2125 851 
z
" transform="scale(0.015625)"/>
      <path id="CMSS17-78" d="M 1587 1420 
L 2656 2752 
L 2099 2752 
L 1363 1785 
L 602 2752 
L 32 2752 
L 1139 1420 
L 0 0 
L 563 0 
L 1363 1126 
L 2195 0 
L 2758 0 
L 1587 1420 
z
" transform="scale(0.015625)"/>
      <path id="CMSS17-45" d="M 1958 435 
C 1446 435 1216 435 1101 428 
L 1101 2105 
L 3085 2105 
L 3085 2496 
L 1101 2496 
L 1101 3993 
L 1926 3993 
C 2003 3993 2080 3987 2157 3987 
L 3251 3987 
L 3251 4403 
L 563 4403 
L 563 0 
L 3334 0 
L 3334 441 
L 1958 435 
z
" transform="scale(0.015625)"/>
      <path id="CMSS17-76" d="M 2675 2752 
L 2176 2752 
L 1747 1555 
C 1613 1164 1421 627 1389 352 
L 1382 352 
C 1370 467 1318 633 1286 748 
C 1248 889 1197 1056 1158 1171 
L 595 2752 
L 83 2752 
L 1094 0 
L 1664 0 
L 2675 2752 
z
" transform="scale(0.015625)"/>
      <path id="CMSS17-75" d="M 2618 2752 
L 2131 2752 
L 2131 976 
C 2131 500 1786 307 1421 307 
C 998 307 960 448 960 712 
L 960 2752 
L 474 2752 
L 474 680 
C 474 179 646 -64 1088 -64 
C 1306 -64 1798 -13 2144 307 
L 2144 -13 
L 2618 -13 
L 2618 2752 
z
" transform="scale(0.015625)"/>
      <path id="CMSS17-6f" d="M 2829 1356 
C 2829 2175 2221 2816 1504 2816 
C 768 2816 173 2156 173 1356 
C 173 544 787 -64 1498 -64 
C 2227 -64 2829 563 2829 1356 
z
M 1504 339 
C 1050 339 659 710 659 1407 
C 659 2150 1114 2425 1498 2425 
C 1914 2425 2342 2124 2342 1407 
C 2342 684 1926 339 1504 339 
z
" transform="scale(0.015625)"/>
      <path id="CMSS17-2d" d="M 1664 1216 
L 1664 1587 
L 64 1587 
L 64 1216 
L 1664 1216 
z
" transform="scale(0.015625)"/>
      <path id="CMSS17-73" d="M 2061 2623 
C 1683 2803 1389 2816 1197 2816 
C 742 2816 198 2655 198 2009 
C 198 1363 902 1222 1094 1183 
C 1389 1126 1715 1062 1715 742 
C 1715 339 1254 339 1171 339 
C 915 339 563 409 243 639 
L 166 211 
C 531 0 883 -64 1178 -64 
C 1965 -64 2163 416 2163 780 
C 2163 1094 1984 1305 1862 1401 
C 1651 1567 1574 1587 1050 1695 
C 960 1708 646 1779 646 2067 
C 646 2431 1050 2431 1139 2431 
C 1555 2431 1811 2303 1984 2207 
L 2061 2623 
z
" transform="scale(0.015625)"/>
      <path id="CMSS17-27" d="M 1088 3910 
L 1088 4416 
L 576 4416 
L 576 3903 
L 736 3903 
L 570 3129 
L 826 3129 
L 1088 3910 
z
" transform="scale(0.015625)"/>
      <path id="CMSS17-50" d="M 2106 1856 
C 2874 1856 3501 2447 3501 3139 
C 3501 3818 2899 4416 2067 4416 
L 570 4416 
L 570 0 
L 1107 0 
L 1107 1856 
L 2106 1856 
z
M 1926 4057 
C 2669 4057 2995 3598 2995 3139 
C 2995 2711 2694 2227 1926 2227 
L 1094 2227 
L 1094 4057 
L 1926 4057 
z
" transform="scale(0.015625)"/>
      <path id="CMSS17-63" d="M 2464 2540 
C 2464 2585 2170 2713 2093 2739 
C 1882 2816 1613 2816 1542 2816 
C 710 2816 211 2092 211 1363 
C 211 595 768 -64 1517 -64 
C 1946 -64 2253 76 2502 243 
L 2464 665 
C 2189 454 1869 339 1523 339 
C 1024 339 698 774 698 1369 
C 698 1830 909 2412 1549 2412 
C 1901 2412 2099 2342 2394 2143 
L 2464 2540 
z
" transform="scale(0.015625)"/>
     </defs>
     <use xlink:href="#CMSS17-4f" transform="scale(0.996264)"/>
     <use xlink:href="#CMSS17-70" transform="translate(69.024255 0) scale(0.996264)"/>
     <use xlink:href="#CMSS17-65" transform="translate(119.831637 0) scale(0.996264)"/>
     <use xlink:href="#CMSS17-72" transform="translate(161.470459 0) scale(0.996264)"/>
     <use xlink:href="#CMSS17-61" transform="translate(193.380232 0) scale(0.996264)"/>
     <use xlink:href="#CMSS17-62" transform="translate(238.302152 0) scale(0.996264)"/>
     <use xlink:href="#CMSS17-69" transform="translate(286.507096 0) scale(0.996264)"/>
     <use xlink:href="#CMSS17-6c" transform="translate(308.687819 0) scale(0.996264)"/>
     <use xlink:href="#CMSS17-69" transform="translate(330.868542 0) scale(0.996264)"/>
     <use xlink:href="#CMSS17-74" transform="translate(353.049265 0) scale(0.996264)"/>
     <use xlink:href="#CMSS17-79" transform="translate(384.278377 0) scale(0.996264)"/>
     <use xlink:href="#CMSS17-49" transform="translate(458.507632 0) scale(0.996264)"/>
     <use xlink:href="#CMSS17-6e" transform="translate(484.291557 0) scale(0.996264)"/>
     <use xlink:href="#CMSS17-64" transform="translate(532.496501 0) scale(0.996264)"/>
     <use xlink:href="#CMSS17-65" transform="translate(580.701444 0) scale(0.996264)"/>
     <use xlink:href="#CMSS17-78" transform="translate(622.340266 0) scale(0.996264)"/>
     <use xlink:href="#CMSS17-45" transform="translate(696.56952 0) scale(0.996264)"/>
     <use xlink:href="#CMSS17-76" transform="translate(752.461533 0) scale(0.996264)"/>
     <use xlink:href="#CMSS17-61" transform="translate(795.461675 0) scale(0.996264)"/>
     <use xlink:href="#CMSS17-6c" transform="translate(840.383596 0) scale(0.996264)"/>
     <use xlink:href="#CMSS17-75" transform="translate(862.564319 0) scale(0.996264)"/>
     <use xlink:href="#CMSS17-61" transform="translate(910.769262 0) scale(0.996264)"/>
     <use xlink:href="#CMSS17-74" transform="translate(955.691182 0) scale(0.996264)"/>
     <use xlink:href="#CMSS17-69" transform="translate(989.522749 0) scale(0.996264)"/>
     <use xlink:href="#CMSS17-6f" transform="translate(1011.703472 0) scale(0.996264)"/>
     <use xlink:href="#CMSS17-6e" transform="translate(1058.547096 0) scale(0.996264)"/>
     <use xlink:href="#CMSS17-2d" transform="translate(1137.981152 0) scale(0.996264)"/>
     <use xlink:href="#CMSS17-4f" transform="translate(1200.439377 0) scale(0.996264)"/>
     <use xlink:href="#CMSS17-75" transform="translate(1269.463632 0) scale(0.996264)"/>
     <use xlink:href="#CMSS17-74" transform="translate(1317.668576 0) scale(0.996264)"/>
     <use xlink:href="#CMSS17-70" transform="translate(1351.500142 0) scale(0.996264)"/>
     <use xlink:href="#CMSS17-75" transform="translate(1399.705085 0) scale(0.996264)"/>
     <use xlink:href="#CMSS17-74" transform="translate(1447.910029 0) scale(0.996264)"/>
     <use xlink:href="#CMSS17-73" transform="translate(1481.741595 0) scale(0.996264)"/>
     <use xlink:href="#CMSS17-27" transform="translate(1517.655137 0) scale(0.996264)"/>
     <use xlink:href="#CMSS17-50" transform="translate(1574.908455 0) scale(0.996264)"/>
     <use xlink:href="#CMSS17-65" transform="translate(1632.041587 0) scale(0.996264)"/>
     <use xlink:href="#CMSS17-72" transform="translate(1673.680409 0) scale(0.996264)"/>
     <use xlink:href="#CMSS17-73" transform="translate(1705.590182 0) scale(0.996264)"/>
     <use xlink:href="#CMSS17-70" transform="translate(1741.503724 0) scale(0.996264)"/>
     <use xlink:href="#CMSS17-65" transform="translate(1792.311106 0) scale(0.996264)"/>
     <use xlink:href="#CMSS17-63" transform="translate(1833.949928 0) scale(0.996264)"/>
     <use xlink:href="#CMSS17-74" transform="translate(1875.58875 0) scale(0.996264)"/>
     <use xlink:href="#CMSS17-69" transform="translate(1909.420317 0) scale(0.996264)"/>
     <use xlink:href="#CMSS17-76" transform="translate(1931.60104 0) scale(0.996264)"/>
     <use xlink:href="#CMSS17-65" transform="translate(1974.601181 0) scale(0.996264)"/>
    </g>
   </g>
   <g id="legend_1">
    <g id="patch_36">
     <path d="M 235.282129 87.773797 
L 392.119682 87.773797 
Q 394.119682 87.773797 394.119682 85.773797 
L 394.119682 28.50218 
Q 394.119682 26.50218 392.119682 26.50218 
L 235.282129 26.50218 
Q 233.282129 26.50218 233.282129 28.50218 
L 233.282129 85.773797 
Q 233.282129 87.773797 235.282129 87.773797 
z
" style="fill: #ffffff; opacity: 0.8; stroke: #cccccc; stroke-linejoin: miter"/>
    </g>
    <g id="patch_37">
     <path d="M 237.282129 37.97416 
L 257.282129 37.97416 
L 257.282129 30.97416 
L 237.282129 30.97416 
z
" style="fill: #7f7f7f; stroke: #7f7f7f; stroke-linejoin: miter"/>
    </g>
    <g id="text_19">
     <!-- Desired Output Set (DOS) -->
     <g transform="translate(265.282129 37.97416) scale(0.1 -0.1)">
      <defs>
       <path id="CMSS17-44" d="M 570 4416 
L 570 0 
L 2144 0 
C 3194 0 4000 981 4000 2169 
C 4000 3396 3194 4416 2144 4416 
L 570 4416 
z
M 1094 358 
L 1094 4057 
L 2003 4057 
C 2861 4057 3475 3275 3475 2169 
C 3475 1108 2867 358 2003 358 
L 1094 358 
z
" transform="scale(0.015625)"/>
       <path id="CMSS17-53" d="M 2797 4230 
C 2515 4396 2208 4544 1690 4544 
C 864 4544 333 3934 333 3309 
C 333 3064 403 2787 653 2504 
C 902 2220 1184 2143 1542 2053 
C 1690 2014 1939 1943 1984 1924 
C 2342 1782 2515 1454 2515 1144 
C 2515 738 2202 307 1645 307 
C 1453 307 890 339 358 829 
L 269 320 
C 794 -64 1363 -128 1651 -128 
C 2438 -128 3002 494 3002 1202 
C 3002 1460 2925 1789 2656 2092 
C 2394 2381 2163 2446 1638 2588 
C 1338 2665 1146 2717 986 2916 
C 877 3058 819 3193 819 3367 
C 819 3728 1126 4121 1690 4121 
C 1971 4121 2336 4063 2707 3715 
L 2797 4230 
z
" transform="scale(0.015625)"/>
       <path id="CMSS17-28" d="M 1613 4800 
C 1267 4447 474 3627 474 1603 
C 474 -428 1267 -1242 1613 -1600 
L 2003 -1600 
C 1216 -781 960 366 960 1596 
C 960 2820 1203 3973 2003 4800 
L 1613 4800 
z
" transform="scale(0.015625)"/>
       <path id="CMSS17-29" d="M 723 -1600 
C 1069 -1248 1862 -428 1862 1596 
C 1862 3627 1069 4440 723 4800 
L 333 4800 
C 1120 3979 1376 2833 1376 1603 
C 1376 379 1133 -774 333 -1600 
L 723 -1600 
z
" transform="scale(0.015625)"/>
      </defs>
      <use xlink:href="#CMSS17-44" transform="scale(0.996264)"/>
      <use xlink:href="#CMSS17-65" transform="translate(67.542842 0) scale(0.996264)"/>
      <use xlink:href="#CMSS17-73" transform="translate(109.181664 0) scale(0.996264)"/>
      <use xlink:href="#CMSS17-69" transform="translate(145.095206 0) scale(0.996264)"/>
      <use xlink:href="#CMSS17-72" transform="translate(167.275929 0) scale(0.996264)"/>
      <use xlink:href="#CMSS17-65" transform="translate(199.185701 0) scale(0.996264)"/>
      <use xlink:href="#CMSS17-64" transform="translate(240.824523 0) scale(0.996264)"/>
      <use xlink:href="#CMSS17-4f" transform="translate(320.258579 0) scale(0.996264)"/>
      <use xlink:href="#CMSS17-75" transform="translate(389.282835 0) scale(0.996264)"/>
      <use xlink:href="#CMSS17-74" transform="translate(437.487778 0) scale(0.996264)"/>
      <use xlink:href="#CMSS17-70" transform="translate(471.319344 0) scale(0.996264)"/>
      <use xlink:href="#CMSS17-75" transform="translate(519.524288 0) scale(0.996264)"/>
      <use xlink:href="#CMSS17-74" transform="translate(567.729231 0) scale(0.996264)"/>
      <use xlink:href="#CMSS17-53" transform="translate(632.78991 0) scale(0.996264)"/>
      <use xlink:href="#CMSS17-65" transform="translate(684.838426 0) scale(0.996264)"/>
      <use xlink:href="#CMSS17-74" transform="translate(726.477248 0) scale(0.996264)"/>
      <use xlink:href="#CMSS17-28" transform="translate(791.537928 0) scale(0.996264)"/>
      <use xlink:href="#CMSS17-44" transform="translate(827.971842 0) scale(0.996264)"/>
      <use xlink:href="#CMSS17-4f" transform="translate(895.514684 0) scale(0.996264)"/>
      <use xlink:href="#CMSS17-53" transform="translate(964.538939 0) scale(0.996264)"/>
      <use xlink:href="#CMSS17-29" transform="translate(1016.587455 0) scale(0.996264)"/>
     </g>
    </g>
    <g id="patch_38">
     <path d="M 237.282129 52.9368 
L 257.282129 52.9368 
L 257.282129 45.9368 
L 237.282129 45.9368 
z
" style="fill: #2ca02c; stroke: #2ca02c; stroke-linejoin: miter"/>
    </g>
    <g id="text_20">
     <!-- Achievable Output Set (AOS) -->
     <g transform="translate(265.282129 52.9368) scale(0.1 -0.1)">
      <defs>
       <path id="CMSS17-41" d="M 2272 4416 
L 1722 4416 
L 166 0 
L 653 0 
L 1101 1280 
L 2816 1280 
L 3270 0 
L 3827 0 
L 2272 4416 
z
M 2694 1638 
L 1222 1638 
C 1530 2530 1914 3638 1958 3924 
L 1965 3924 
C 2010 3663 2138 3281 2246 2956 
L 2694 1638 
z
" transform="scale(0.015625)"/>
       <path id="CMSS17-68" d="M 2618 1878 
C 2618 2283 2522 2816 1798 2816 
C 1395 2816 1133 2617 947 2399 
L 947 4416 
L 474 4416 
L 474 0 
L 960 0 
L 960 1556 
C 960 1962 1114 2425 1549 2425 
C 2112 2425 2131 2045 2131 1826 
L 2131 0 
L 2618 0 
L 2618 1878 
z
" transform="scale(0.015625)"/>
      </defs>
      <use xlink:href="#CMSS17-41" transform="scale(0.996264)"/>
      <use xlink:href="#CMSS17-63" transform="translate(62.217855 0) scale(0.996264)"/>
      <use xlink:href="#CMSS17-68" transform="translate(103.856677 0) scale(0.996264)"/>
      <use xlink:href="#CMSS17-69" transform="translate(152.06162 0) scale(0.996264)"/>
      <use xlink:href="#CMSS17-65" transform="translate(174.242343 0) scale(0.996264)"/>
      <use xlink:href="#CMSS17-76" transform="translate(215.881165 0) scale(0.996264)"/>
      <use xlink:href="#CMSS17-61" transform="translate(258.881307 0) scale(0.996264)"/>
      <use xlink:href="#CMSS17-62" transform="translate(303.803228 0) scale(0.996264)"/>
      <use xlink:href="#CMSS17-6c" transform="translate(352.008171 0) scale(0.996264)"/>
      <use xlink:href="#CMSS17-65" transform="translate(374.188894 0) scale(0.996264)"/>
      <use xlink:href="#CMSS17-4f" transform="translate(447.056829 0) scale(0.996264)"/>
      <use xlink:href="#CMSS17-75" transform="translate(516.081084 0) scale(0.996264)"/>
      <use xlink:href="#CMSS17-74" transform="translate(564.286027 0) scale(0.996264)"/>
      <use xlink:href="#CMSS17-70" transform="translate(598.117594 0) scale(0.996264)"/>
      <use xlink:href="#CMSS17-75" transform="translate(646.322537 0) scale(0.996264)"/>
      <use xlink:href="#CMSS17-74" transform="translate(694.52748 0) scale(0.996264)"/>
      <use xlink:href="#CMSS17-53" transform="translate(759.588159 0) scale(0.996264)"/>
      <use xlink:href="#CMSS17-65" transform="translate(811.636676 0) scale(0.996264)"/>
      <use xlink:href="#CMSS17-74" transform="translate(853.275498 0) scale(0.996264)"/>
      <use xlink:href="#CMSS17-28" transform="translate(918.336177 0) scale(0.996264)"/>
      <use xlink:href="#CMSS17-41" transform="translate(954.770091 0) scale(0.996264)"/>
      <use xlink:href="#CMSS17-4f" transform="translate(1014.385492 0) scale(0.996264)"/>
      <use xlink:href="#CMSS17-53" transform="translate(1083.409748 0) scale(0.996264)"/>
      <use xlink:href="#CMSS17-29" transform="translate(1135.458264 0) scale(0.996264)"/>
     </g>
    </g>
    <g id="patch_39">
     <path d="M 237.282129 67.42746 
L 257.282129 67.42746 
L 257.282129 60.42746 
L 237.282129 60.42746 
z
" style="fill: #1f77b4; stroke: #1f77b4; stroke-linejoin: miter"/>
    </g>
    <g id="text_21">
     <!-- $ AOS \cap DOS$ -->
     <g transform="translate(265.282129 67.42746) scale(0.1 -0.1)">
      <defs>
       <path id="CMMI12-41" d="M 1088 720 
C 864 335 646 205 339 185 
C 269 179 218 179 218 64 
C 218 25 250 0 294 0 
C 410 0 698 12 813 12 
C 998 12 1203 0 1382 0 
C 1421 0 1498 0 1498 121 
C 1498 179 1446 185 1408 185 
C 1261 198 1139 250 1139 407 
C 1139 498 1178 570 1261 714 
L 1747 1536 
L 3379 1536 
C 3386 1477 3386 1425 3392 1366 
C 3411 1196 3488 518 3488 394 
C 3488 198 3162 185 3059 185 
C 2989 185 2918 185 2918 70 
C 2918 0 2976 0 3014 0 
C 3123 0 3251 12 3360 12 
L 3725 12 
C 4115 12 4397 0 4403 0 
C 4448 0 4518 0 4518 121 
C 4518 185 4461 185 4365 185 
C 4013 185 4006 244 3987 440 
L 3597 4403 
C 3584 4531 3558 4544 3488 4544 
C 3424 4544 3386 4531 3328 4435 
L 1088 720 
z
M 1856 1721 
L 3142 3831 
L 3360 1721 
L 1856 1721 
z
" transform="scale(0.015625)"/>
       <path id="CMMI12-4f" d="M 4646 2788 
C 4646 3837 3955 4480 3059 4480 
C 1690 4480 307 3017 307 1550 
C 307 552 973 -128 1901 -128 
C 3245 -128 4646 1264 4646 2788 
z
M 1939 19 
C 1414 19 858 400 858 1391 
C 858 1969 1069 2915 1594 3551 
C 2061 4110 2598 4339 3027 4339 
C 3590 4339 4134 3932 4134 3017 
C 4134 2452 3891 1569 3462 965 
C 2995 317 2413 19 1939 19 
z
" transform="scale(0.015625)"/>
       <path id="CMMI12-53" d="M 4064 4422 
C 4064 4480 4019 4480 4006 4480 
C 3981 4480 3974 4473 3898 4377 
C 3859 4332 3597 4002 3590 3996 
C 3379 4409 2957 4480 2688 4480 
C 1875 4480 1139 3742 1139 3024 
C 1139 2547 1427 2268 1741 2160 
C 1811 2134 2189 2033 2381 1988 
C 2707 1899 2790 1874 2925 1734 
C 2950 1702 3078 1556 3078 1258 
C 3078 667 2528 57 1888 57 
C 1363 57 781 279 781 991 
C 781 1112 806 1264 826 1328 
C 826 1347 832 1378 832 1391 
C 832 1417 819 1448 768 1448 
C 710 1448 704 1436 678 1328 
L 352 25 
C 352 19 326 -64 326 -71 
C 326 -128 378 -128 390 -128 
C 416 -128 422 -122 499 -26 
L 794 356 
C 947 127 1280 -128 1875 -128 
C 2701 -128 3456 667 3456 1461 
C 3456 1728 3392 1963 3149 2198 
C 3014 2331 2899 2363 2310 2516 
C 1882 2630 1824 2649 1709 2751 
C 1600 2859 1517 3011 1517 3227 
C 1517 3761 2061 4307 2669 4307 
C 3296 4307 3590 3926 3590 3322 
C 3590 3157 3558 2986 3558 2960 
C 3558 2903 3610 2903 3629 2903 
C 3686 2903 3693 2922 3718 3024 
L 4064 4422 
z
" transform="scale(0.015625)"/>
       <path id="CMSY10-5c" d="M 3910 2444 
C 3910 3417 2931 3840 2131 3840 
C 1299 3840 352 3392 352 2451 
L 352 102 
C 352 -13 352 -128 480 -128 
C 608 -128 608 -13 608 102 
L 608 2419 
C 608 3379 1651 3584 2131 3584 
C 2419 3584 2822 3526 3162 3309 
C 3654 2995 3654 2585 3654 2412 
L 3654 102 
C 3654 -13 3654 -128 3782 -128 
C 3910 -128 3910 -13 3910 102 
L 3910 2444 
z
" transform="scale(0.015625)"/>
       <path id="CMMI12-44" d="M 1005 472 
C 947 249 934 185 486 185 
C 365 185 301 185 301 70 
C 301 0 339 0 467 0 
L 2496 0 
C 3789 0 5050 1332 5050 2752 
C 5050 3669 4499 4352 3584 4352 
L 1530 4352 
C 1408 4352 1350 4352 1350 4230 
C 1350 4166 1408 4166 1504 4166 
C 1894 4166 1894 4115 1894 4045 
C 1894 4032 1894 3994 1869 3898 
L 1005 472 
z
M 2355 3917 
C 2413 4153 2438 4166 2688 4166 
L 3392 4166 
C 3994 4166 4544 3841 4544 2962 
C 4544 2644 4416 1535 3795 835 
C 3616 625 3130 185 2394 185 
L 1664 185 
C 1574 185 1562 185 1523 191 
C 1453 198 1446 211 1446 262 
C 1446 306 1459 344 1472 402 
L 2355 3917 
z
" transform="scale(0.015625)"/>
      </defs>
      <use xlink:href="#CMMI12-41" transform="scale(0.996264)"/>
      <use xlink:href="#CMMI12-4f" transform="translate(73.127885 0) scale(0.996264)"/>
      <use xlink:href="#CMMI12-53" transform="translate(150.388284 0) scale(0.996264)"/>
      <use xlink:href="#CMSY10-5c" transform="translate(238.32193 0) scale(0.996264)"/>
      <use xlink:href="#CMMI12-44" transform="translate(326.878956 0) scale(0.996264)"/>
      <use xlink:href="#CMMI12-4f" transform="translate(410.582903 0) scale(0.996264)"/>
      <use xlink:href="#CMMI12-53" transform="translate(487.843302 0) scale(0.996264)"/>
     </g>
    </g>
    <g id="patch_40">
     <path d="M 237.282129 81.836618 
L 257.282129 81.836618 
L 257.282129 74.836618 
L 237.282129 74.836618 
L 237.282129 81.836618 
z
" style="fill: none"/>
    </g>
    <g id="text_22">
     <!-- Operability Index = 60.32\% -->
     <g transform="translate(265.282129 81.836618) scale(0.1 -0.1)">
      <defs>
       <path id="CMSS17-3d" d="M 4147 2048 
C 4243 2048 4339 2048 4339 2156 
C 4339 2272 4230 2272 4122 2272 
L 550 2272 
C 442 2272 333 2272 333 2156 
C 333 2048 429 2048 525 2048 
L 4147 2048 
z
M 4122 927 
C 4230 927 4339 927 4339 1043 
C 4339 1152 4243 1152 4147 1152 
L 525 1152 
C 429 1152 333 1152 333 1043 
C 333 927 442 927 550 927 
L 4122 927 
z
" transform="scale(0.015625)"/>
       <path id="CMSS17-36" d="M 2496 4159 
C 2227 4268 2035 4288 1856 4288 
C 1024 4288 250 3408 250 2023 
C 250 268 986 -128 1510 -128 
C 1798 -128 2086 -39 2362 281 
C 2643 619 2752 900 2752 1392 
C 2752 2183 2362 2886 1779 2886 
C 1357 2886 992 2662 768 2381 
C 832 3290 1254 3897 1862 3897 
C 2029 3897 2246 3871 2496 3760 
L 2496 4159 
z
M 774 1372 
C 774 1423 774 1455 781 1551 
C 781 2049 1069 2496 1536 2496 
C 1837 2496 1990 2336 2106 2138 
C 2240 1889 2246 1653 2246 1392 
C 2246 1143 2246 894 2099 638 
C 1978 441 1818 268 1510 268 
C 902 268 800 1117 774 1372 
z
" transform="scale(0.015625)"/>
       <path id="CMSS17-30" d="M 2758 2073 
C 2758 2439 2752 3120 2490 3647 
C 2227 4153 1805 4288 1504 4288 
C 1069 4288 698 4031 506 3621 
C 301 3191 243 2748 243 2073 
C 243 1611 262 1046 493 551 
C 755 6 1197 -128 1498 -128 
C 1894 -128 2278 83 2496 525 
C 2720 988 2758 1495 2758 2073 
z
M 1498 262 
C 1011 262 864 821 819 1007 
C 742 1328 730 1636 730 2144 
C 730 2542 730 2992 851 3345 
C 998 3756 1254 3897 1498 3897 
C 1971 3897 2125 3422 2176 3255 
C 2272 2915 2272 2516 2272 2144 
C 2272 1546 2272 262 1498 262 
z
" transform="scale(0.015625)"/>
       <path id="CMSS17-2e" d="M 1088 512 
L 576 512 
L 576 0 
L 1088 0 
L 1088 512 
z
" transform="scale(0.015625)"/>
       <path id="CMSS17-33" d="M 1005 2060 
L 1440 2060 
C 2042 2060 2214 1532 2214 1164 
C 2214 662 1933 268 1472 268 
C 1114 268 608 449 320 926 
C 275 700 275 687 250 533 
C 550 89 1037 -128 1485 -128 
C 2214 -128 2752 481 2752 1158 
C 2752 1667 2400 2092 1920 2252 
C 2304 2463 2586 2860 2586 3321 
C 2586 3859 2093 4288 1491 4288 
C 941 4288 512 3948 333 3583 
C 378 3519 493 3334 550 3238 
C 691 3615 1056 3897 1485 3897 
C 1843 3897 2080 3660 2080 3321 
C 2080 2969 1856 2585 1478 2496 
C 1453 2496 1056 2457 1005 2451 
L 1005 2060 
z
" transform="scale(0.015625)"/>
       <path id="CMSS17-32" d="M 1651 1353 
C 1830 1538 2099 1761 2285 1984 
C 2464 2201 2701 2507 2701 2953 
C 2701 3655 2227 4288 1421 4288 
C 787 4288 422 3891 250 3272 
L 499 2928 
C 640 3508 838 3878 1338 3878 
C 1888 3878 2195 3431 2195 2940 
C 2195 2354 1747 1901 1408 1563 
C 1030 1187 659 805 301 409 
L 301 0 
L 2701 0 
L 2701 435 
L 1613 435 
C 1536 435 1459 428 1382 428 
L 742 428 
L 742 435 
L 1651 1353 
z
" transform="scale(0.015625)"/>
       <path id="CMSS17-25" d="M 3923 4582 
C 3962 4646 3962 4678 3962 4684 
C 3962 4755 3904 4800 3853 4800 
C 3782 4800 3750 4748 3718 4684 
L 1101 -109 
C 1088 -135 1062 -173 1062 -212 
C 1062 -282 1120 -327 1178 -327 
C 1235 -327 1248 -301 1299 -212 
L 3923 4582 
z
M 4678 953 
C 4678 1690 4282 2233 3846 2233 
C 3418 2233 3008 1703 3008 953 
C 3008 203 3418 -327 3846 -327 
C 4288 -327 4678 216 4678 953 
z
M 3846 64 
C 3712 64 3494 184 3494 953 
C 3494 1716 3712 1843 3846 1843 
C 4083 1843 4211 1379 4211 953 
C 4211 527 4083 64 3846 64 
z
M 2003 3516 
C 2003 4256 1606 4800 1171 4800 
C 742 4800 333 4269 333 3516 
C 333 2764 742 2233 1171 2233 
C 1613 2233 2003 2777 2003 3516 
z
M 1171 2624 
C 1037 2624 819 2745 819 3516 
C 819 4282 1037 4409 1171 4409 
C 1408 4409 1536 3944 1536 3516 
C 1536 3089 1408 2624 1171 2624 
z
" transform="scale(0.015625)"/>
      </defs>
      <use xlink:href="#CMSS17-4f" transform="scale(0.996264)"/>
      <use xlink:href="#CMSS17-70" transform="translate(69.024255 0) scale(0.996264)"/>
      <use xlink:href="#CMSS17-65" transform="translate(119.831637 0) scale(0.996264)"/>
      <use xlink:href="#CMSS17-72" transform="translate(161.470459 0) scale(0.996264)"/>
      <use xlink:href="#CMSS17-61" transform="translate(193.380232 0) scale(0.996264)"/>
      <use xlink:href="#CMSS17-62" transform="translate(238.302152 0) scale(0.996264)"/>
      <use xlink:href="#CMSS17-69" transform="translate(286.507096 0) scale(0.996264)"/>
      <use xlink:href="#CMSS17-6c" transform="translate(308.687819 0) scale(0.996264)"/>
      <use xlink:href="#CMSS17-69" transform="translate(330.868542 0) scale(0.996264)"/>
      <use xlink:href="#CMSS17-74" transform="translate(353.049265 0) scale(0.996264)"/>
      <use xlink:href="#CMSS17-79" transform="translate(384.278377 0) scale(0.996264)"/>
      <use xlink:href="#CMSS17-49" transform="translate(458.507632 0) scale(0.996264)"/>
      <use xlink:href="#CMSS17-6e" transform="translate(484.291557 0) scale(0.996264)"/>
      <use xlink:href="#CMSS17-64" transform="translate(532.496501 0) scale(0.996264)"/>
      <use xlink:href="#CMSS17-65" transform="translate(580.701444 0) scale(0.996264)"/>
      <use xlink:href="#CMSS17-78" transform="translate(622.340266 0) scale(0.996264)"/>
      <use xlink:href="#CMSS17-3d" transform="translate(696.56952 0) scale(0.996264)"/>
      <use xlink:href="#CMSS17-36" transform="translate(800.666568 0) scale(0.996264)"/>
      <use xlink:href="#CMSS17-30" transform="translate(847.510191 0) scale(0.996264)"/>
      <use xlink:href="#CMSS17-2e" transform="translate(894.353815 0) scale(0.996264)"/>
      <use xlink:href="#CMSS17-33" transform="translate(920.37802 0) scale(0.996264)"/>
      <use xlink:href="#CMSS17-32" transform="translate(967.221643 0) scale(0.996264)"/>
      <use xlink:href="#CMSS17-25" transform="translate(1014.065267 0) scale(0.996264)"/>
     </g>
    </g>
   </g>
  </g>
 </g>
 <defs>
  <clipPath id="pe7c0e48799">
   <rect x="41.999682" y="21.50218" width="357.12" height="266.112"/>
  </clipPath>
 </defs>
</svg>