<?xml version="1.0" encoding="UTF-8" standalone="no"?>
<!DOCTYPE svg PUBLIC "-//W3C//DTD SVG 1.1//EN"
 "http://www.w3.org/Graphics/SVG/1.1/DTD/svg11.dtd">
<!-- Generated by graphviz version 8.1.0 (20230707.0739)
 -->
<!-- Title: G Pages: 1 -->
<svg width="498pt" height="661pt"
 viewBox="0.00 0.00 498.42 661.00" xmlns="http://www.w3.org/2000/svg" xmlns:xlink="http://www.w3.org/1999/xlink">
<g id="graph0" class="graph" transform="scale(1 1) rotate(0) translate(4 657)">
<title>G</title><style>.edge>path:hover{stroke-width:8}</style>
<polygon fill="white" stroke="none" points="-4,4 -4,-657 494.42,-657 494.42,4 -4,4"/>
<!-- cvxopt -->
<g id="node1" class="node">
<title>cvxopt</title><style>.edge>path:hover{stroke-width:8}</style>
<ellipse fill="#c04040" stroke="black" cx="300.43" cy="-308" rx="27" ry="18"/>
<text text-anchor="middle" x="300.43" y="-304.5" font-family="Helvetica,sans-Serif" font-size="10.00" fill="#ffffff">cvxopt</text>
</g>
<!-- polytope -->
<g id="node10" class="node">
<title>polytope</title><style>.edge>path:hover{stroke-width:8}</style>
<polygon fill="#a723c8" stroke="black" points="293.43,-217 290.43,-221 269.43,-221 266.43,-217 239.43,-217 239.43,-181 293.43,-181 293.43,-217"/>
<text text-anchor="middle" x="266.43" y="-195.5" font-family="Helvetica,sans-Serif" font-size="10.00" fill="#ffffff">polytope</text>
</g>
<!-- cvxopt&#45;&gt;polytope -->
<g id="edge1" class="edge">
<title>cvxopt&#45;&gt;polytope</title><style>.edge>path:hover{stroke-width:8}</style>
<path fill="none" stroke="black" d="M388.43,-253C369.29,-225.46 332.61,-212.11 304.44,-205.71"/>
<polygon fill="#c04040" stroke="black" points="305.24,-202.1 294.74,-203.52 303.83,-208.96 305.24,-202.1"/>
<path fill="none" stroke="black" d="M321.69,-296.82C349.14,-283.34 392.93,-260.48 388.43,-254"/>
</g>
<!-- cvxopt_glpk -->
<g id="node2" class="node">
<title>cvxopt_glpk</title><style>.edge>path:hover{stroke-width:8}</style>
<ellipse fill="#b65353" stroke="black" cx="422.43" cy="-308" rx="38.94" ry="18"/>
<text text-anchor="middle" x="422.43" y="-304.5" font-family="Helvetica,sans-Serif" font-size="10.00" fill="#ffffff">cvxopt.glpk</text>
</g>
<!-- cvxopt_glpk&#45;&gt;polytope -->
<g id="edge2" class="edge">
<title>cvxopt_glpk&#45;&gt;polytope</title><style>.edge>path:hover{stroke-width:8}</style>
<path fill="none" stroke="black" d="M412.32,-290.56C405.71,-279.99 396.79,-266.03 388.43,-254"/>
</g>
<!-- ipopt_wrapper -->
<g id="node3" class="node">
<title>ipopt_wrapper</title><style>.edge>path:hover{stroke-width:8}</style>
<ellipse fill="#a2b653" stroke="black" cx="61.43" cy="-199" rx="45.7" ry="18"/>
<text text-anchor="middle" x="61.43" y="-195.5" font-family="Helvetica,sans-Serif" font-size="10.00" fill="#000000">ipopt_wrapper</text>
</g>
<!-- cyipopt -->
<g id="node5" class="node">
<title>cyipopt</title><style>.edge>path:hover{stroke-width:8}</style>
<polygon fill="#a87b38" stroke="black" points="172.43,-145 169.43,-149 148.43,-149 145.43,-145 118.43,-145 118.43,-109 172.43,-109 172.43,-145"/>
<text text-anchor="middle" x="145.43" y="-123.5" font-family="Helvetica,sans-Serif" font-size="10.00" fill="#000000">cyipopt</text>
</g>
<!-- ipopt_wrapper&#45;&gt;cyipopt -->
<g id="edge4" class="edge">
<title>ipopt_wrapper&#45;&gt;cyipopt</title><style>.edge>path:hover{stroke-width:8}</style>
<path fill="none" stroke="black" d="M80.07,-182.46C90.65,-173.65 104.13,-162.42 116.1,-152.45"/>
<polygon fill="#a2b653" stroke="black" points="118.04,-154.55 123.48,-145.46 113.55,-149.17 118.04,-154.55"/>
</g>
<!-- opyrability -->
<g id="node4" class="node">
<title>opyrability</title><style>.edge>path:hover{stroke-width:8}</style>
<polygon fill="#3e3563" stroke="black" points="175.56,-36 172.56,-40 151.56,-40 148.56,-36 115.31,-36 115.31,0 175.56,0 175.56,-36"/>
<text text-anchor="middle" x="145.43" y="-14.5" font-family="Helvetica,sans-Serif" font-size="10.00" fill="#ffffff">opyrability</text>
</g>
<!-- cyipopt&#45;&gt;opyrability -->
<g id="edge3" class="edge">
<title>cyipopt&#45;&gt;opyrability</title><style>.edge>path:hover{stroke-width:8}</style>
<path fill="none" stroke="black" d="M144.52,-108.77C144.19,-98.38 144.17,-84.9 145.43,-73"/>
</g>
<!-- jax -->
<g id="node6" class="node">
<title>jax</title><style>.edge>path:hover{stroke-width:8}</style>
<polygon fill="#219503" stroke="black" points="190.43,-398 187.43,-402 166.43,-402 163.43,-398 136.43,-398 136.43,-362 190.43,-362 190.43,-398"/>
<text text-anchor="middle" x="163.43" y="-376.5" font-family="Helvetica,sans-Serif" font-size="10.00" fill="#ffffff">jax</text>
</g>
<!-- jax&#45;&gt;opyrability -->
<g id="edge5" class="edge">
<title>jax&#45;&gt;opyrability</title><style>.edge>path:hover{stroke-width:8}</style>
<path fill="none" stroke="black" d="M168.73,-361.73C172.4,-347.55 176.17,-326.96 173.43,-309"/>
<path fill="none" stroke="black" d="M173.43,-307C164.83,-250.65 184.81,-236.59 197.43,-181 202.82,-157.24 222.67,-149.62 211.43,-128"/>
<path fill="none" stroke="black" d="M211.43,-126C192.64,-93.41 141.47,-110.41 145.43,-73"/>
</g>
<!-- jaxlib -->
<g id="node7" class="node">
<title>jaxlib</title><style>.edge>path:hover{stroke-width:8}</style>
<polygon fill="#06f967" stroke="black" points="245.43,-544 242.43,-548 221.43,-548 218.43,-544 191.43,-544 191.43,-508 245.43,-508 245.43,-544"/>
<text text-anchor="middle" x="218.43" y="-522.5" font-family="Helvetica,sans-Serif" font-size="10.00" fill="#000000">jaxlib</text>
</g>
<!-- jaxlib&#45;&gt;jax -->
<g id="edge6" class="edge">
<title>jaxlib&#45;&gt;jax</title><style>.edge>path:hover{stroke-width:8}</style>
<path fill="none" stroke="black" d="M211.8,-507.63C202.38,-482.98 185.05,-437.6 173.89,-408.39"/>
<polygon fill="#06f967" stroke="black" points="176.93,-407.52 170.09,-399.43 170.39,-410.02 176.93,-407.52"/>
</g>
<!-- matplotlib -->
<g id="node8" class="node">
<title>matplotlib</title><style>.edge>path:hover{stroke-width:8}</style>
<polygon fill="#039595" stroke="black" points="321.43,-544 318.43,-548 297.43,-548 294.43,-544 263.43,-544 263.43,-508 321.43,-508 321.43,-544"/>
<text text-anchor="middle" x="292.43" y="-522.5" font-family="Helvetica,sans-Serif" font-size="10.00" fill="#ffffff">matplotlib</text>
</g>
<!-- matplotlib&#45;&gt;opyrability -->
<g id="edge8" class="edge">
<title>matplotlib&#45;&gt;opyrability</title><style>.edge>path:hover{stroke-width:8}</style>
<path fill="none" stroke="black" d="M239.43,-434C226.81,-413.52 227.01,-405.02 228.43,-381"/>
<path fill="none" stroke="black" d="M228.43,-379C230.77,-339.5 178.68,-348.22 173.43,-309"/>
</g>
<!-- matplotlib&#45;&gt;jax -->
<g id="edge7" class="edge">
<title>matplotlib&#45;&gt;jax</title><style>.edge>path:hover{stroke-width:8}</style>
<path fill="none" stroke="black" d="M279.47,-507.75C267.1,-490.34 248.96,-462.21 239.43,-435"/>
<path fill="none" stroke="black" d="M239.43,-434C230.09,-418.83 214.6,-406.87 200.04,-398.18"/>
<polygon fill="#039595" stroke="black" points="202.12,-394.77 191.68,-392.94 198.7,-400.88 202.12,-394.77"/>
</g>
<!-- matplotlib&#45;&gt;polytope -->
<g id="edge9" class="edge">
<title>matplotlib&#45;&gt;polytope</title><style>.edge>path:hover{stroke-width:8}</style>
<path fill="none" stroke="black" d="M228.43,-379C231.71,-325.63 295.56,-360.48 336.43,-326 351.52,-313.27 399.69,-270.21 388.43,-254"/>
</g>
<!-- scipy -->
<g id="node11" class="node">
<title>scipy</title><style>.edge>path:hover{stroke-width:8}</style>
<polygon fill="#95035b" stroke="black" points="255.43,-326 252.43,-330 231.43,-330 228.43,-326 201.43,-326 201.43,-290 255.43,-290 255.43,-326"/>
<text text-anchor="middle" x="228.43" y="-304.5" font-family="Helvetica,sans-Serif" font-size="10.00" fill="#ffffff">scipy</text>
</g>
<!-- matplotlib&#45;&gt;scipy -->
<g id="edge10" class="edge">
<title>matplotlib&#45;&gt;scipy</title><style>.edge>path:hover{stroke-width:8}</style>
<path fill="none" stroke="black" d="M228.43,-379C229.27,-365.26 229.37,-349.96 229.22,-337.19"/>
<polygon fill="#039595" stroke="black" points="232.7,-337.21 229.02,-327.28 225.7,-337.34 232.7,-337.21"/>
</g>
<!-- numpy -->
<g id="node9" class="node">
<title>numpy</title><style>.edge>path:hover{stroke-width:8}</style>
<polygon fill="#033e95" stroke="black" points="319.43,-653 316.43,-657 295.43,-657 292.43,-653 265.43,-653 265.43,-617 319.43,-617 319.43,-653"/>
<text text-anchor="middle" x="292.43" y="-631.5" font-family="Helvetica,sans-Serif" font-size="10.00" fill="#ffffff">numpy</text>
</g>
<!-- numpy&#45;&gt;opyrability -->
<g id="edge15" class="edge">
<title>numpy&#45;&gt;opyrability</title><style>.edge>path:hover{stroke-width:8}</style>
<path fill="none" stroke="black" d="M163.43,-434C158.19,-411.99 136.09,-418.91 127.43,-398 102.9,-338.78 154.78,-315.11 135.43,-254"/>
<path fill="none" stroke="black" d="M292.43,-580C277.79,-530.69 216.1,-582.89 182.43,-544 150.24,-506.82 171.84,-483.45 163.43,-435"/>
<path fill="none" stroke="black" d="M294.72,-616.98C295.58,-606.43 295.68,-592.7 292.43,-581"/>
<path fill="none" stroke="black" d="M135.43,-253C108.24,-200.05 42.42,-264.41 6.43,-217 -3.24,-204.26 -0.6,-195.37 6.43,-181 15.03,-163.43 143.37,-92.45 145.43,-73"/>
<path fill="none" stroke="black" d="M145.43,-72C145.46,-63.87 145.46,-55.04 145.46,-46.96"/>
<polygon fill="#033e95" stroke="black" points="148.96,-47.18 145.46,-37.19 141.96,-47.19 148.96,-47.18"/>
</g>
<!-- numpy&#45;&gt;cyipopt -->
<g id="edge11" class="edge">
<title>numpy&#45;&gt;cyipopt</title><style>.edge>path:hover{stroke-width:8}</style>
<path fill="none" stroke="black" d="M135.43,-253C125.45,-220.75 131.22,-181.71 137.33,-155.94"/>
<polygon fill="#033e95" stroke="black" points="140.93,-156.99 140.02,-146.43 134.15,-155.25 140.93,-156.99"/>
</g>
<!-- numpy&#45;&gt;jax -->
<g id="edge12" class="edge">
<title>numpy&#45;&gt;jax</title><style>.edge>path:hover{stroke-width:8}</style>
<path fill="none" stroke="black" d="M163.43,-434C161.55,-426.09 160.96,-417.33 161.01,-409.24"/>
<polygon fill="#033e95" stroke="black" points="164.54,-409.55 161.42,-399.42 157.54,-409.28 164.54,-409.55"/>
</g>
<!-- numpy&#45;&gt;jaxlib -->
<g id="edge13" class="edge">
<title>numpy&#45;&gt;jaxlib</title><style>.edge>path:hover{stroke-width:8}</style>
<path fill="none" stroke="black" d="M292.43,-580C289.6,-570.69 272.36,-558.06 255.23,-547.47"/>
<polygon fill="#033e95" stroke="black" points="257.2,-543.97 246.82,-541.83 253.6,-549.98 257.2,-543.97"/>
</g>
<!-- numpy&#45;&gt;matplotlib -->
<g id="edge14" class="edge">
<title>numpy&#45;&gt;matplotlib</title><style>.edge>path:hover{stroke-width:8}</style>
<path fill="none" stroke="black" d="M292.43,-580C290.03,-572.1 289.31,-563.23 289.39,-555.04"/>
<polygon fill="#033e95" stroke="black" points="292.94,-555.24 289.94,-545.08 285.95,-554.89 292.94,-555.24"/>
</g>
<!-- numpy&#45;&gt;polytope -->
<g id="edge16" class="edge">
<title>numpy&#45;&gt;polytope</title><style>.edge>path:hover{stroke-width:8}</style>
<path fill="none" stroke="black" d="M489.43,-379C471.78,-342.61 495.98,-321.36 470.43,-290 445.29,-259.14 411.07,-286.73 388.43,-254"/>
</g>
<!-- numpy&#45;&gt;scipy -->
<g id="edge17" class="edge">
<title>numpy&#45;&gt;scipy</title><style>.edge>path:hover{stroke-width:8}</style>
<path fill="none" stroke="black" d="M292.43,-580C285.67,-557.74 313.86,-560.33 330.43,-544 402.51,-472.96 497.39,-481.89 489.43,-381"/>
<path fill="none" stroke="black" d="M489.43,-379C446.09,-289.63 366.9,-355.21 266.15,-325.96"/>
<polygon fill="#033e95" stroke="black" points="267.29,-322.33 256.7,-322.6 265.15,-328.99 267.29,-322.33"/>
</g>
<!-- polytope&#45;&gt;opyrability -->
<g id="edge18" class="edge">
<title>polytope&#45;&gt;opyrability</title><style>.edge>path:hover{stroke-width:8}</style>
<path fill="none" stroke="black" d="M249.7,-180.59C237.59,-167.15 221.63,-147.61 211.43,-128"/>
</g>
<!-- scipy&#45;&gt;opyrability -->
<g id="edge20" class="edge">
<title>scipy&#45;&gt;opyrability</title><style>.edge>path:hover{stroke-width:8}</style>
<path fill="none" stroke="black" d="M211.43,-198C204.8,-167.6 225.78,-155.6 211.43,-128"/>
</g>
<!-- scipy&#45;&gt;cyipopt -->
<g id="edge19" class="edge">
<title>scipy&#45;&gt;cyipopt</title><style>.edge>path:hover{stroke-width:8}</style>
<path fill="none" stroke="black" d="M211.43,-253C213.37,-229.52 216.45,-223.01 211.43,-200"/>
<path fill="none" stroke="black" d="M219.17,-289.75C214.66,-279.58 210.41,-266.33 211.43,-254"/>
<path fill="none" stroke="black" d="M211.43,-198C207.45,-179.76 194.36,-164.1 180.87,-152.24"/>
<polygon fill="#95035b" stroke="black" points="183.45,-149.01 173.5,-145.37 179.01,-154.42 183.45,-149.01"/>
</g>
<!-- scipy&#45;&gt;polytope -->
<g id="edge21" class="edge">
<title>scipy&#45;&gt;polytope</title><style>.edge>path:hover{stroke-width:8}</style>
<path fill="none" stroke="black" d="M211.43,-253C212.5,-240.09 220.75,-229.32 230.56,-220.93"/>
<polygon fill="#95035b" stroke="black" points="232.22,-223.31 238.04,-214.45 227.97,-217.75 232.22,-223.31"/>
</g>
</g>
</svg>
