<?xml version="1.0" encoding="UTF-8" standalone="no"?>
<!-- Generated by graphviz version 8.1.0 (20230707.0739)
 -->

<!-- Title: G Pages: 1 -->

<svg
   width="835pt"
   height="335pt"
   viewBox="0.00 0.00 834.65 334.98"
   version="1.1"
   id="svg291"
   sodipodi:docname="dependencies_opyrability.svg"
   inkscape:version="1.2.2 (732a01da63, 2022-12-09)"
   xmlns:inkscape="http://www.inkscape.org/namespaces/inkscape"
   xmlns:sodipodi="http://sodipodi.sourceforge.net/DTD/sodipodi-0.dtd"
   xmlns="http://www.w3.org/2000/svg"
   xmlns:svg="http://www.w3.org/2000/svg">
  <defs
     id="defs295" />
  <sodipodi:namedview
     id="namedview293"
     pagecolor="#ffffff"
     bordercolor="#000000"
     borderopacity="0.25"
     inkscape:showpageshadow="2"
     inkscape:pageopacity="0.0"
     inkscape:pagecheckerboard="0"
     inkscape:deskcolor="#d1d1d1"
     inkscape:document-units="pt"
     showgrid="false"
     inkscape:zoom="1.0868263"
     inkscape:cx="516.18182"
     inkscape:cy="185.86226"
     inkscape:window-width="1920"
     inkscape:window-height="1017"
     inkscape:window-x="-8"
     inkscape:window-y="-8"
     inkscape:window-maximized="1"
     inkscape:current-layer="graph0" />
  <g
     id="graph0"
     class="graph"
     transform="scale(1 1) rotate(0) translate(4 330.98)">
    <title
       id="title2">G</title>
    <style
       id="style4">.edge&gt;path:hover{stroke-width:8}</style>
    <polygon
       fill="white"
       stroke="none"
       points="-4,4 -4,-330.98 830.65,-330.98 830.65,4 -4,4"
       id="polygon6" />
    <!-- ipopt_wrapper -->
    <g
       id="node1"
       class="node">
      <title
         id="title8">ipopt_wrapper</title>
      <style
         id="style10">.edge&gt;path:hover{stroke-width:8}</style>
      <ellipse
         fill="#a2b653"
         stroke="black"
         cx="557.7"
         cy="-308.98"
         rx="45.7"
         ry="18"
         id="ellipse12" />
      <text
         text-anchor="middle"
         x="557.7"
         y="-305.48"
         font-family="Helvetica,sans-Serif"
         font-size="10.00"
         fill="#000000"
         id="text14">ipopt_wrapper</text>
    </g>
    <!-- cyipopt -->
    <g
       id="node4"
       class="node">
      <title
         id="title17">cyipopt</title>
      <style
         id="style19">.edge&gt;path:hover{stroke-width:8}</style>
      <polygon
         fill="#a87b38"
         stroke="black"
         points="693.4,-161.98 690.4,-165.98 669.4,-165.98 666.4,-161.98 639.4,-161.98 639.4,-125.98 693.4,-125.98 693.4,-161.98"
         id="polygon21" />
      <text
         text-anchor="middle"
         x="666.4"
         y="-140.48"
         font-family="Helvetica,sans-Serif"
         font-size="10.00"
         fill="#000000"
         id="text23">cyipopt</text>
    </g>
    <!-- ipopt_wrapper&#45;&gt;cyipopt -->
    <g
       id="edge3"
       class="edge">
      <title
         id="title26">ipopt_wrapper-&gt;cyipopt</title>
      <style
         id="style28">.edge&gt;path:hover{stroke-width:8}</style>
      <path
         fill="none"
         stroke="black"
         d="M584.26,-294.07C591.08,-289.24 598.04,-283.44 603.4,-276.98 629.52,-245.52 647.26,-201.23 656.86,-172.56"
         id="path30" />
      <polygon
         fill="#a2b653"
         stroke="black"
         points="660.4,-173.99 660.14,-163.4 653.74,-171.84 660.4,-173.99"
         id="polygon32" />
    </g>
    <!-- opyrability -->
    <g
       id="node2"
       class="node">
      <title
         id="title35">opyrability</title>
      <style
         id="style37">.edge&gt;path:hover{stroke-width:8}</style>
      <polygon
         fill="#3e3563"
         stroke="black"
         points="826.65,-115.98 823.65,-119.98 802.65,-119.98 799.65,-115.98 766.4,-115.98 766.4,-79.98 826.65,-79.98 826.65,-115.98"
         id="polygon39" />
      <text
         text-anchor="middle"
         x="796.53"
         y="-94.48"
         font-family="Helvetica,sans-Serif"
         font-size="10.00"
         fill="#ffffff"
         id="text41">opyrability</text>
    </g>
    <!-- cvxopt -->
    <g
       id="node3"
       class="node">
      <title
         id="title44">cvxopt</title>
      <style
         id="style46">.edge&gt;path:hover{stroke-width:8}</style>
      <polygon
         fill="#c04040"
         stroke="black"
         points="439,-180.98 436,-184.98 415,-184.98 412,-180.98 385,-180.98 385,-144.98 439,-144.98 439,-180.98"
         id="polygon48" />
      <text
         text-anchor="middle"
         x="412"
         y="-159.48"
         font-family="Helvetica,sans-Serif"
         font-size="10.00"
         fill="#ffffff"
         id="text50">cvxopt</text>
    </g>
    <!-- polytope -->
    <g
       id="node9"
       class="node">
      <title
         id="title53">polytope</title>
      <style
         id="style55">.edge&gt;path:hover{stroke-width:8}</style>
      <polygon
         fill="#a723c8"
         stroke="black"
         points="584.7,-115.98 581.7,-119.98 560.7,-119.98 557.7,-115.98 530.7,-115.98 530.7,-79.98 584.7,-79.98 584.7,-115.98"
         id="polygon57" />
      <text
         text-anchor="middle"
         x="557.7"
         y="-94.48"
         font-family="Helvetica,sans-Serif"
         font-size="10.00"
         fill="#ffffff"
         id="text59">polytope</text>
    </g>
    <!-- cvxopt&#45;&gt;polytope -->
    <g
       id="edge1"
       class="edge">
      <title
         id="title62">cvxopt-&gt;polytope</title>
      <style
         id="style64">.edge&gt;path:hover{stroke-width:8}</style>
      <path
         fill="none"
         stroke="black"
         d="M430.61,-144.58C442.08,-134.06 458.03,-121.99 475,-116.98"
         id="path66" />
    </g>
    <!-- cyipopt&#45;&gt;opyrability -->
    <g
       id="edge2"
       class="edge">
      <title
         id="title69">cyipopt-&gt;opyrability</title>
      <style
         id="style71">.edge&gt;path:hover{stroke-width:8}</style>
      <path
         fill="none"
         stroke="black"
         d="M683.17,-125.7C694.59,-114.29 711.19,-101.17 729.4,-97.98"
         id="path73" />
    </g>
    <!-- jax -->
    <g
       id="node5"
       class="node">
      <title
         id="title76">jax</title>
      <style
         id="style78">.edge&gt;path:hover{stroke-width:8}</style>
      <polygon
         fill="#219503"
         stroke="black"
         points="349,-58.98 346,-62.98 325,-62.98 322,-58.98 295,-58.98 295,-22.98 349,-22.98 349,-58.98"
         id="polygon80" />
      <text
         text-anchor="middle"
         x="322"
         y="-37.48"
         font-family="Helvetica,sans-Serif"
         font-size="10.00"
         fill="#ffffff"
         id="text82">jax</text>
    </g>
    <!-- jax&#45;&gt;opyrability -->
    <g
       id="edge4"
       class="edge">
      <title
         id="title85">jax-&gt;opyrability</title>
      <style
         id="style87">.edge&gt;path:hover{stroke-width:8}</style>
      <path
         fill="none"
         stroke="black"
         d="M349.29,-39.27C366.84,-38.55 390.38,-38.38 411,-40.98"
         id="path89" />
    </g>
    <!-- jaxlib -->
    <g
       id="node6"
       class="node">
      <title
         id="title92">jaxlib</title>
      <style
         id="style94">.edge&gt;path:hover{stroke-width:8}</style>
      <polygon
         fill="#06f967"
         stroke="black"
         points="183,-94.98 180,-98.98 159,-98.98 156,-94.98 129,-94.98 129,-58.98 183,-58.98 183,-94.98"
         id="polygon96" />
      <text
         text-anchor="middle"
         x="156"
         y="-73.48"
         font-family="Helvetica,sans-Serif"
         font-size="10.00"
         fill="#000000"
         id="text98">jaxlib</text>
    </g>
    <!-- jaxlib&#45;&gt;jax -->
    <g
       id="edge5"
       class="edge"
       transform="matrix(1.0165821,0,0,0.99981912,-5.1645218,-0.01656711)">
      <title
         id="title101">jaxlib-&gt;jax</title>
      <style
         id="style103">.edge&gt;path:hover{stroke-width:8}</style>
      <path
         fill="none"
         stroke="#000000"
         d="m 222,-122.98 c 35.66,-6.07 65.85,28.42 83.2,54.54"
         id="path105" />
      <polygon
         fill="#06f967"
         stroke="#000000"
         points="311,-60.28 302.7,-66.86 308.61,-70.6 "
         id="polygon107" />
      <path
         fill="none"
         stroke="#000000"
         d="M 176.16016,-99.103438 C 186.9586,-109.72606 203.13794,-121.98823 221.01027,-123.041"
         id="path109"
         style="stroke-width:0.888641" />
    </g>
    <!-- matplotlib -->
    <g
       id="node7"
       class="node">
      <title
         id="title112">matplotlib</title>
      <style
         id="style114">.edge&gt;path:hover{stroke-width:8}</style>
      <polygon
         fill="#039595"
         stroke="black"
         points="185,-186.98 182,-190.98 161,-190.98 158,-186.98 127,-186.98 127,-150.98 185,-150.98 185,-186.98"
         id="polygon116" />
      <text
         text-anchor="middle"
         x="156"
         y="-165.48"
         font-family="Helvetica,sans-Serif"
         font-size="10.00"
         fill="#ffffff"
         id="text118">matplotlib</text>
    </g>
    <!-- matplotlib&#45;&gt;opyrability -->
    <g
       id="edge7"
       class="edge">
      <title
         id="title121">matplotlib-&gt;opyrability</title>
      <style
         id="style123">.edge&gt;path:hover{stroke-width:8}</style>
      <path
         fill="none"
         stroke="#000000"
         d="m 259,-178.61405 c 24.26,13.07 36.89012,-4.91595 64.07012,-0.36595"
         id="path125"
         sodipodi:nodetypes="cc" />
      <path
         fill="none"
         stroke="#000000"
         d="m 323,-178.98 c 38.43,6.44 29.67,40.24 62,62 36.02,24.25 48.0538,37.010992 91.4638,38.060992"
         id="path127"
         sodipodi:nodetypes="ccc" />
      <path
         fill="none"
         stroke="black"
         d="M476,-78.98C513.18,-72.06 519.31,-46.26 556.7,-51.98"
         id="path129" />
    </g>
    <!-- matplotlib&#45;&gt;jax -->
    <g
       id="edge6"
       class="edge">
      <title
         id="title132">matplotlib-&gt;jax</title>
      <style
         id="style134">.edge&gt;path:hover{stroke-width:8}</style>
      <path
         fill="none"
         stroke="#000000"
         d="m 257.96314,-178.98 c 41.27,18.11 56.10686,73.95 60.72686,108.8"
         id="path136"
         sodipodi:nodetypes="cc" />
      <polygon
         fill="#039595"
         stroke="black"
         points="322.28,-70.58 319.92,-60.25 315.32,-69.79 322.28,-70.58"
         id="polygon138" />
      <path
         fill="none"
         stroke="black"
         d="M185.18,-179.02C206.12,-184.79 234.93,-189.1 258,-178.98"
         id="path140" />
    </g>
    <!-- matplotlib&#45;&gt;polytope -->
    <g
       id="edge8"
       class="edge">
      <title
         id="title143">matplotlib-&gt;polytope</title>
      <style
         id="style145">.edge&gt;path:hover{stroke-width:8}</style>
      <path
         fill="none"
         stroke="black"
         d="M476,-78.98C490.65,-78.62 506.4,-81.55 520.07,-85.21"
         id="path147" />
      <polygon
         fill="#039595"
         stroke="black"
         points="518.95,-88.82 529.53,-88.25 520.91,-82.1 518.95,-88.82"
         id="polygon149" />
    </g>
    <!-- scipy -->
    <g
       id="node10"
       class="node">
      <title
         id="title152">scipy</title>
      <style
         id="style154">.edge&gt;path:hover{stroke-width:8}</style>
      <polygon
         fill="#95035b"
         stroke="black"
         points="439,-234.98 436,-238.98 415,-238.98 412,-234.98 385,-234.98 385,-198.98 439,-198.98 439,-234.98"
         id="polygon156" />
      <text
         text-anchor="middle"
         x="412"
         y="-213.48"
         font-family="Helvetica,sans-Serif"
         font-size="10.00"
         fill="#ffffff"
         id="text158">scipy</text>
    </g>
    <!-- matplotlib&#45;&gt;scipy -->
    <g
       id="edge9"
       class="edge">
      <title
         id="title161">matplotlib-&gt;scipy</title>
      <style
         id="style163">.edge&gt;path:hover{stroke-width:8}</style>
      <path
         fill="none"
         stroke="black"
         d="M323,-178.98C342.35,-175.74 362.53,-183.54 378.68,-192.9"
         id="path165" />
      <polygon
         fill="#039595"
         stroke="black"
         points="376.35,-196.19 386.69,-198.52 380.06,-190.25 376.35,-196.19"
         id="polygon167" />
    </g>
    <!-- numpy -->
    <g
       id="node8"
       class="node">
      <title
         id="title170">numpy</title>
      <style
         id="style172">.edge&gt;path:hover{stroke-width:8}</style>
      <polygon
         fill="#033e95"
         stroke="black"
         points="54,-140.98 51,-144.98 30,-144.98 27,-140.98 0,-140.98 0,-104.98 54,-104.98 54,-140.98"
         id="polygon174" />
      <text
         text-anchor="middle"
         x="27"
         y="-119.48"
         font-family="Helvetica,sans-Serif"
         font-size="10.00"
         fill="#ffffff"
         id="text176">numpy</text>
    </g>
    <!-- numpy&#45;&gt;opyrability -->
    <g
       id="edge14"
       class="edge">
      <title
         id="title179">numpy-&gt;opyrability</title>
      <style
         id="style181">.edge&gt;path:hover{stroke-width:8}</style>
      <path
         fill="none"
         stroke="#000000"
         d="M 410.91942,-41.000031 C 474.46942,-48.990031 493.38,-42.3 556.7,-51.98"
         id="path183"
         sodipodi:nodetypes="cc" />
      <path
         fill="none"
         stroke="black"
         d="M91,-122.98C127.17,-122.26 98.46,-72.21 127,-49.98 205.85,11.46 251.14,6.41 349,-13.98 378.42,-20.1 381.35,-36.06 411,-40.98"
         id="path185" />
      <path
         fill="none"
         stroke="#000000"
         d="m 665.14331,-97.98 c 27.56,0 37.11669,-4.76 64.25669,-2e-6"
         id="path187"
         sodipodi:nodetypes="cc" />
      <path
         fill="none"
         stroke="#000000"
         d="m 54.249114,-123.07992 c 11.586708,-0.02 25.209486,0 37.520363,0.0998"
         id="path189"
         style="stroke-width:1.02362" />
      <path
         fill="none"
         stroke="#000000"
         d="m 556.70252,-51.995248 c 21.39,-2.94 24.87,-10.46 44.7,-19 C 629.01252,-82.865248 635.35,-97.98 665.4,-97.98"
         id="path191"
         sodipodi:nodetypes="ccc" />
      <path
         fill="none"
         stroke="#000000"
         d="m 729.19243,-98.023128 c 7.97,1.4 17.76757,2.063128 26.01757,2.223128"
         id="path193"
         sodipodi:nodetypes="cc" />
      <polygon
         fill="#033e95"
         stroke="black"
         points="755.16,-99.3 765.16,-95.83 755.17,-92.3 755.16,-99.3"
         id="polygon195" />
    </g>
    <!-- numpy&#45;&gt;cyipopt -->
    <g
       id="edge10"
       class="edge">
      <title
         id="title198">numpy-&gt;cyipopt</title>
      <style
         id="style200">.edge&gt;path:hover{stroke-width:8}</style>
      <path
         fill="none"
         stroke="black"
         d="M323,-216.98C352.79,-212.96 355.58,-237.85 385,-243.98 408.5,-248.87 415.52,-248.93 439,-243.98 510.18,-228.95 586.24,-190.06 629.59,-165.44"
         id="path202" />
      <polygon
         fill="#033e95"
         stroke="black"
         points="631.18,-167.99 638.11,-159.97 627.69,-161.92 631.18,-167.99"
         id="polygon204" />
    </g>
    <!-- numpy&#45;&gt;jax -->
    <g
       id="edge11"
       class="edge">
      <title
         id="title207">numpy-&gt;jax</title>
      <style
         id="style209">.edge&gt;path:hover{stroke-width:8}</style>
      <path
         fill="none"
         stroke="black"
         d="M91,-122.98C148.78,-122.53 163.33,-119.37 221,-122.98"
         id="path211" />
    </g>
    <!-- numpy&#45;&gt;jaxlib -->
    <g
       id="edge12"
       class="edge">
      <title
         id="title214">numpy-&gt;jaxlib</title>
      <style
         id="style216">.edge&gt;path:hover{stroke-width:8}</style>
      <path
         fill="none"
         stroke="black"
         d="M91,-122.98C106.97,-122.85 121.67,-113.29 132.95,-102.91"
         id="path218" />
      <polygon
         fill="#033e95"
         stroke="black"
         points="134.93,-105.88 139.53,-96.34 129.98,-100.93 134.93,-105.88"
         id="polygon220" />
    </g>
    <!-- numpy&#45;&gt;matplotlib -->
    <g
       id="edge13"
       class="edge">
      <title
         id="title223">numpy-&gt;matplotlib</title>
      <style
         id="style225">.edge&gt;path:hover{stroke-width:8}</style>
      <path
         fill="none"
         stroke="black"
         d="M91,-122.98C107.08,-122.85 121.88,-132.53 133.18,-143.04"
         id="path227" />
      <polygon
         fill="#033e95"
         stroke="black"
         points="130.25,-145.06 139.77,-149.71 135.23,-140.14 130.25,-145.06"
         id="polygon229" />
    </g>
    <!-- numpy&#45;&gt;polytope -->
    <g
       id="edge15"
       class="edge">
      <title
         id="title232">numpy-&gt;polytope</title>
      <style
         id="style234">.edge&gt;path:hover{stroke-width:8}</style>
      <path
         fill="none"
         stroke="black"
         d="M323,-216.98C345.43,-214.75 376.14,-142.14 385,-135.98 418.56,-112.63 435.79,-128.56 475,-116.98"
         id="path236" />
      <path
         fill="none"
         stroke="#000000"
         d="m 474.59719,-117.10198 c 14.1,4.75 31.37281,8.88198 45.29281,11.97198"
         id="path238"
         sodipodi:nodetypes="cc" />
      <polygon
         fill="#033e95"
         stroke="black"
         points="520.51,-108.36 529.55,-102.84 519.04,-101.51 520.51,-108.36"
         id="polygon240" />
      <path
         fill="none"
         stroke="#000000"
         d="m 91,-122.98 c 36.17,0.39 6.35,-52.27 36,-73 71.07,-49.69 36.7221,-56.94785 195.95173,-21"
         id="path242"
         sodipodi:nodetypes="ccc" />
    </g>
    <!-- numpy&#45;&gt;scipy -->
    <g
       id="edge16"
       class="edge">
      <title
         id="title245">numpy-&gt;scipy</title>
      <style
         id="style247">.edge&gt;path:hover{stroke-width:8}</style>
      <path
         fill="none"
         stroke="black"
         d="M323,-216.98C339.64,-215.33 358.13,-215.09 373.86,-215.36"
         id="path249" />
      <polygon
         fill="#033e95"
         stroke="black"
         points="373.67,-218.88 383.75,-215.63 373.84,-211.88 373.67,-218.88"
         id="polygon251" />
    </g>
    <!-- polytope&#45;&gt;opyrability -->
    <g
       id="edge17"
       class="edge">
      <title
         id="title254">polytope-&gt;opyrability</title>
      <style
         id="style256">.edge&gt;path:hover{stroke-width:8}</style>
      <path
         fill="none"
         stroke="black"
         d="M585.01,-97.98C606.61,-97.98 637.99,-97.98 665.4,-97.98"
         id="path258" />
    </g>
    <!-- scipy&#45;&gt;opyrability -->
    <g
       id="edge19"
       class="edge">
      <title
         id="title261">scipy-&gt;opyrability</title>
      <style
         id="style263">.edge&gt;path:hover{stroke-width:8}</style>
      <path
         fill="none"
         stroke="black"
         d="M558.7,-143.98C579.98,-140.31 583.57,-133.51 603.4,-124.98 631.01,-113.1 635.35,-97.98 665.4,-97.98"
         id="path265" />
      <path
         fill="none"
         stroke="#000000"
         d="m 476,-154.98 c 30.22,19.93 47.01223,4.85 82.68223,11"
         id="path267"
         sodipodi:nodetypes="cc" />
    </g>
    <!-- scipy&#45;&gt;cyipopt -->
    <g
       id="edge18"
       class="edge">
      <title
         id="title270">scipy-&gt;cyipopt</title>
      <style
         id="style272">.edge&gt;path:hover{stroke-width:8}</style>
      <path
         fill="none"
         stroke="black"
         d="M558.7,-143.98C581.65,-140.02 607.79,-139.95 628.46,-140.9"
         id="path274" />
      <polygon
         fill="#95035b"
         stroke="black"
         points="628.14,-144.44 638.32,-141.52 628.53,-137.46 628.14,-144.44"
         id="polygon276" />
    </g>
    <!-- scipy&#45;&gt;polytope -->
    <g
       id="edge20"
       class="edge">
      <title
         id="title279">scipy-&gt;polytope</title>
      <style
         id="style281">.edge&gt;path:hover{stroke-width:8}</style>
      <path
         fill="none"
         stroke="#000000"
         d="m 430.47,-198.77 c 16.5,17.06 40.54785,40.50099 45.62785,43.85099"
         id="path283"
         sodipodi:nodetypes="cc" />
      <path
         fill="none"
         stroke="black"
         d="M476,-154.98C484.96,-149.07 504.46,-135.31 522.04,-122.79"
         id="path285" />
      <polygon
         fill="#95035b"
         stroke="black"
         points="523.88,-125.06 529.99,-116.4 519.82,-119.36 523.88,-125.06"
         id="polygon287" />
    </g>
  </g>
</svg>
